<svg xmlns="http://www.w3.org/2000/svg" viewBox="0 0 566.93 141.73">
  <path d="M35.391 76.938l.058-1.698c.429-11.672 3.376-22.701 8.843-33.087 5.037-9.487 11.38-17.158 19.033-23.015 7.574-5.777 14.952-8.667 22.136-8.667 5.465 0 9.78 1.894 12.942 5.681 2.694 3.279 4.041 7.301 4.041 12.063 0 5.701-2.089 11.322-6.266 16.866-2.421 3.202-4.998 5.505-7.73 6.91-1.289.703-2.489 1.054-3.602 1.054s-2.138-.234-3.075-.703a9.37 9.37 0 0 1-2.459-1.757c-1.445-1.523-2.167-2.889-2.167-4.1 0-1.209.312-2.049.937-2.518 6.402-4.606 10.755-9.35 13.059-14.23.898-1.874 1.347-3.708 1.347-5.505 0-3.786-1.796-5.68-5.388-5.68-5.622 0-11.419 3.065-17.393 9.194-5.583 5.662-10.269 12.767-14.055 21.316-3.944 8.784-6.032 16.846-6.266 24.186l-.059 2.226c0 8.784 1.854 14.543 5.563 17.275 1.327.977 2.918 1.464 4.773 1.464 1.854 0 3.602-.234 5.241-.702a28.554 28.554 0 0 0 4.919-1.933c2.654-1.366 6.051-3.729 10.189-7.086 1.249-.976 2.284-.84 3.104.409.703 1.016 1.054 2.188 1.054 3.514 0 2.226-.303 3.739-.908 4.539-.605.801-1.64 1.747-3.104 2.84-1.464 1.094-3.25 2.108-5.358 3.046-4.919 2.187-9.741 3.279-14.465 3.279s-8.531-.577-11.419-1.728c-2.89-1.151-5.329-2.801-7.32-4.949-4.136-4.528-6.205-10.696-6.205-18.504zM103.322 97.551c-1.64-1.561-2.928-3.543-3.865-5.943-.937-2.401-1.425-5.241-1.464-8.521-.039-3.279.36-6.597 1.201-9.955a48.346 48.346 0 0 1 3.572-9.72 49.097 49.097 0 0 1 5.563-8.785c2.167-2.732 4.558-5.114 7.174-7.145 5.7-4.372 11.615-6.559 17.744-6.559 8.042 0 13.488 3.534 16.339 10.6 2.029 5.115 2.146 11.302.351 18.564-1.64 6.675-4.646 12.805-9.018 18.387-4.334 5.584-9.449 9.546-15.343 11.889-2.967 1.171-5.885 1.757-8.755 1.757s-5.427-.372-7.672-1.113c-2.245-.742-4.187-1.894-5.827-3.456zm11.185-28.402a56.572 56.572 0 0 0-2.781 8.901c-.684 3.046-1.006 5.925-.966 8.638.038 2.714.458 4.842 1.259 6.384.8 1.543 2.098 2.312 3.895 2.312 1.795 0 3.562-.614 5.3-1.844 1.737-1.23 3.426-2.86 5.065-4.891 1.64-2.029 3.182-4.372 4.626-7.027a67.08 67.08 0 0 0 3.807-8.315c2.381-6.285 3.533-11.868 3.455-16.748 0-4.294-.878-7.027-2.635-8.199-.703-.468-1.689-.703-2.958-.703-1.269 0-2.723.576-4.363 1.728-1.64 1.152-3.279 2.704-4.919 4.656-1.64 1.953-3.221 4.236-4.744 6.852a64.849 64.849 0 0 0-4.041 8.256zM214.179 89.997c.898 0 1.347.449 1.347 1.347 0 3.396-1.679 6.247-5.036 8.55-2.265 1.484-4.919 2.226-7.964 2.226-2.499 0-4.413-.586-5.739-1.757-2.382-2.108-3.572-4.686-3.572-7.73 0-3.865 1.62-9.779 4.861-17.744-6.013 8.121-10.229 13.519-12.649 16.192-2.421 2.675-4.529 4.754-6.325 6.236-3.904 3.202-7.437 4.803-10.6 4.803-4.841 0-8.062-2.089-9.663-6.267-.468-1.288-.703-2.762-.703-4.421s.283-3.514.849-5.563a59.064 59.064 0 0 1 2.196-6.413 190.599 190.599 0 0 1 2.928-6.852l3.162-7.027c4.06-9.018 5.563-14.366 4.509-16.045-.468-.741-1.347-1.483-2.635-2.226-.468-.272-.703-.751-.703-1.435 0-.683.283-1.337.849-1.962.565-.624 1.297-1.171 2.196-1.64 1.912-.897 3.826-1.347 5.739-1.347 1.913 0 3.367.205 4.363.615.996.41 1.806.928 2.431 1.552 1.288 1.289 1.932 2.714 1.932 4.275 0 1.562-.254 3.309-.761 5.241-.508 1.933-1.171 4.032-1.991 6.295a211.398 211.398 0 0 1-2.693 7.027c-2.694 6.325-4.509 10.502-5.446 12.532l-2.167 4.509c-1.21 2.694-1.815 4.589-1.815 5.681 0 1.094.176 1.865.527 2.313.351.449.985.674 1.903.674.917 0 1.981-.43 3.192-1.289 1.209-.858 2.537-2.01 3.982-3.455 1.444-1.443 2.947-3.112 4.509-5.007a127.25 127.25 0 0 0 4.568-5.886c2.928-3.981 5.075-7.182 6.442-9.603 8.276-14.641 12.688-22.292 13.235-22.956 1.249-1.678 2.527-2.518 3.835-2.518 1.308 0 2.45.146 3.426.439.975.293 1.815.713 2.518 1.259 1.64 1.21 2.167 2.421 1.581 3.63-9.526 19.873-14.661 32.365-15.402 37.479-.196 1.757-.292 2.968-.292 3.631 0 2.968.897 4.45 2.694 4.45 1.678 0 3.064-.302 4.158-.907 1.091-.603 1.833-.906 2.224-.906zM226.125 100.128c-.781-.586-1.405-1.239-1.874-1.962-.468-.722-.723-1.347-.761-1.874-.04-.527.068-1.171.322-1.933.253-.762.595-1.688 1.024-2.781 7.964-19.598 11.947-32.755 11.947-39.47-.117-1.874-.761-3.201-1.933-3.982l-1.171-.82c-.351-.272-.537-.751-.556-1.435-.02-.683.224-1.337.732-1.962.507-.624 1.171-1.171 1.991-1.64 1.678-.897 3.406-1.347 5.183-1.347 1.776 0 3.163.196 4.158.585.996.391 1.845.917 2.548 1.581 1.483 1.405 2.234 2.89 2.254 4.451a19.881 19.881 0 0 1-.527 4.744 54.765 54.765 0 0 1-1.318 4.714 145.46 145.46 0 0 1-1.522 4.393c-.508 1.386-.84 2.411-.996 3.074-.313 1.367-.43 2.226-.352 2.576.937-.819 1.502-1.619 1.698-2.4l2.284-4.334c5.075-9.135 10.033-15.187 14.875-18.154 1.405-.82 3.094-1.229 5.065-1.229 1.971 0 3.562.693 4.773 2.079 1.209 1.386 1.845 2.919 1.903 4.597.059 1.679-.059 3.074-.352 4.187s-.732 2.158-1.317 3.133c-1.289 2.187-2.851 3.279-4.685 3.279-.508 0-.977-.176-1.405-.526l-1.289-1.113c-1.289-1.132-2.528-1.698-3.719-1.698-1.191 0-2.635.781-4.333 2.342-1.698 1.562-3.465 3.572-5.3 6.032-6.169 8.16-11.206 17.294-15.109 27.406l-2.577 6.793c-.664 1.68-1.25 2.88-1.757 3.602-.508.723-1.259 1.084-2.254 1.084-.996 0-1.991-.187-2.987-.557s-1.882-.85-2.663-1.435zM309.107 88.767c-5.936 8.901-12.514 13.353-19.736 13.353-6.52 0-10.912-3.475-13.175-10.424-.782-2.381-1.171-5.31-1.171-8.784s.498-6.959 1.493-10.454a47.62 47.62 0 0 1 4.07-9.925c1.717-3.123 3.738-6.002 6.061-8.638s4.812-4.909 7.467-6.822c5.543-4.1 11.049-6.149 16.514-6.149 5.467 0 9.371 2.557 11.713 7.671.469-.507.898-1.025 1.289-1.552.389-.527.82-1.025 1.287-1.494 1.016-1.015 1.904-1.522 2.666-1.522.76 0 1.561.137 2.4.41.84.273 1.648.644 2.43 1.112 1.912 1.133 2.637 2.187 2.168 3.163-2.148 4.646-3.945 9.214-5.389 13.703l-8.666 27.64c-6.834 20.966-15.5 34.513-26.002 40.643-2.773 1.64-5.174 2.585-7.203 2.84-2.031.253-3.495.264-4.392.029a8.846 8.846 0 0 1-2.401-.996c-1.523-.976-2.284-1.854-2.284-2.635 0-1.367.908-2.206 2.723-2.519s3.719-1.045 5.709-2.195a32.749 32.749 0 0 0 5.682-4.188c7.378-6.832 12.96-17.589 16.747-32.267zm-17.539-20.32a57.064 57.064 0 0 0-2.43 8.637c-.586 2.948-.879 5.358-.879 7.232s.059 3.299.176 4.274c.117.977.352 1.836.703 2.577.779 1.64 1.932 2.459 3.455 2.459 1.521 0 3.023-.536 4.508-1.61 1.484-1.073 3.045-2.547 4.686-4.421 1.639-1.874 3.279-4.079 4.92-6.617a90.863 90.863 0 0 0 4.684-8.199c3.279-6.479 5.582-12.667 6.91-18.563-.195-1.092-.859-2.205-1.99-3.338-2.227-2.146-4.236-3.221-6.031-3.221-1.797 0-3.594.556-5.389 1.669-1.797 1.113-3.504 2.616-5.123 4.509-1.621 1.894-3.135 4.099-4.539 6.617a55.976 55.976 0 0 0-3.661 7.995zM338.563 81.037c.156-3.396.723-6.647 1.698-9.75a47.115 47.115 0 0 1 3.924-9.019 52.723 52.723 0 0 1 5.769-8.257c2.205-2.596 4.597-4.87 7.174-6.823 5.582-4.177 11.224-6.266 16.924-6.266 6.676 0 11.127 2.752 13.353 8.257.78 1.874 1.15 4.09 1.112 6.647-.039 2.557-.527 4.919-1.464 7.086a20.572 20.572 0 0 1-3.895 5.914c-1.66 1.777-3.631 3.368-5.915 4.773-2.283 1.405-4.772 2.597-7.466 3.572-5.545 1.952-11.479 2.967-17.803 3.045-.157.547-.255 1.367-.293 2.46-.039 1.093.078 2.312.352 3.66.272 1.347.741 2.547 1.405 3.602 1.405 2.342 3.435 3.514 6.09 3.514 4.529 0 8.94-1.327 13.235-3.982 1.522-.897 2.762-1.825 3.719-2.782.956-.956 1.786-1.435 2.488-1.435.703 0 1.318.42 1.845 1.259.527.841.791 1.786.791 2.841 0 2.069-.586 3.865-1.757 5.388-4.919 4.919-12.239 7.379-21.961 7.379-5.738 0-10.346-1.718-13.82-5.153-3.904-3.905-5.739-9.215-5.505-15.93zm34.201-32.326c-4.1 0-8.043 2.811-11.829 8.433-3.202 4.842-5.778 10.58-7.73 17.216 6.52-.663 12.181-3.239 16.982-7.729 4.412-4.217 6.618-8.258 6.618-12.123s-1.348-5.797-4.041-5.797zM428.631 86.19c1.132 0 1.698.761 1.698 2.283 0 1.289-.391 2.539-1.171 3.748-1.054 2.265-3.162 4.412-6.324 6.442-3.593 2.304-7.203 3.455-10.834 3.455-6.286 0-10.269-2.812-11.946-8.434-1.991-6.676.995-20.827 8.959-42.456-4.489-.39-6.93-1.171-7.319-2.342a3.597 3.597 0 0 1-.176-1.142c0-.41.185-.888.556-1.435a8.254 8.254 0 0 1 1.436-1.581c1.365-1.132 2.752-1.698 4.157-1.698h4.627c4.216-9.876 7.222-15.499 9.018-16.866a4.766 4.766 0 0 1 2.87-.937c1.054 0 1.933.137 2.635.41a5.843 5.843 0 0 1 1.874 1.171c1.249 1.171 1.874 2.48 1.874 3.924 0 .781-.234 1.679-.702 2.694l-4.334 9.428h1.405c2.421 0 4.372-.019 5.856-.059l3.338-.059a55.864 55.864 0 0 1 2.782-.058c1.112 0 1.669.41 1.669 1.229 0 5.153-6.091 7.73-18.271 7.73h-.469l-3.982 10.307c-4.489 12.18-6.734 20.711-6.734 25.591 0 1.367.312 2.431.938 3.191.624.762 1.795 1.142 3.514 1.142 1.717 0 3.279-.292 4.685-.878s2.636-1.239 3.689-1.962a61.312 61.312 0 0 0 2.723-1.962c.759-.583 1.412-.876 1.959-.876zM471.673 86.19c1.132 0 1.698.761 1.698 2.283 0 1.289-.391 2.539-1.171 3.748-1.054 2.265-3.162 4.412-6.324 6.442-3.593 2.304-7.203 3.455-10.834 3.455-6.286 0-10.269-2.812-11.946-8.434-1.991-6.676.995-20.827 8.959-42.456-4.489-.39-6.93-1.171-7.319-2.342a3.597 3.597 0 0 1-.176-1.142c0-.41.185-.888.556-1.435a8.254 8.254 0 0 1 1.436-1.581c1.365-1.132 2.752-1.698 4.157-1.698h4.627c4.216-9.876 7.222-15.499 9.018-16.866a4.766 4.766 0 0 1 2.87-.937c1.054 0 1.933.137 2.635.41a5.843 5.843 0 0 1 1.874 1.171c1.249 1.171 1.874 2.48 1.874 3.924 0 .781-.234 1.679-.702 2.694l-4.334 9.428h1.405c2.421 0 4.372-.019 5.856-.059l3.338-.059a55.864 55.864 0 0 1 2.782-.058c1.112 0 1.669.41 1.669 1.229 0 5.153-6.091 7.73-18.271 7.73h-.469l-3.982 10.307c-4.489 12.18-6.734 20.711-6.734 25.591 0 1.367.312 2.431.938 3.191.624.762 1.795 1.142 3.514 1.142 1.717 0 3.279-.292 4.685-.878s2.636-1.239 3.689-1.962a61.312 61.312 0 0 0 2.723-1.962c.759-.583 1.412-.876 1.959-.876zM481.219 81.037c.156-3.396.723-6.647 1.698-9.75a47.115 47.115 0 0 1 3.924-9.019 52.723 52.723 0 0 1 5.769-8.257c2.205-2.596 4.597-4.87 7.174-6.823 5.582-4.177 11.224-6.266 16.924-6.266 6.676 0 11.127 2.752 13.353 8.257.78 1.874 1.15 4.09 1.112 6.647-.039 2.557-.527 4.919-1.464 7.086a20.572 20.572 0 0 1-3.895 5.914c-1.66 1.777-3.631 3.368-5.915 4.773-2.283 1.405-4.772 2.597-7.466 3.572-5.545 1.952-11.479 2.967-17.803 3.045-.157.547-.255 1.367-.293 2.46-.039 1.093.078 2.312.352 3.66.272 1.347.741 2.547 1.405 3.602 1.405 2.342 3.435 3.514 6.09 3.514 4.529 0 8.94-1.327 13.235-3.982 1.522-.897 2.762-1.825 3.719-2.782.956-.956 1.786-1.435 2.488-1.435.703 0 1.318.42 1.845 1.259.527.841.791 1.786.791 2.841 0 2.069-.586 3.865-1.757 5.388-4.919 4.919-12.239 7.379-21.961 7.379-5.738 0-10.346-1.718-13.82-5.153-3.905-3.905-5.74-9.215-5.505-15.93zm34.2-32.326c-4.1 0-8.043 2.811-11.829 8.433-3.202 4.842-5.778 10.58-7.73 17.216 6.52-.663 12.181-3.239 16.982-7.729 4.412-4.217 6.618-8.258 6.618-12.123s-1.348-5.797-4.041-5.797z"/>
</svg>
