<svg xmlns="http://www.w3.org/2000/svg" viewBox="0 0 566.93 141.73">
  <path d="M34.796 32.311c0-15.96 9.609-21.66 20.52-21.171l51.463 2.606v9.445H55.316c-8.468 0-8.468 4.723-8.468 9.12v32.571l53.417 1.629v9.608l-53.417 1.629v32.571c.163 8.631 5.374 8.469 10.097 8.469h49.834v9.282l-49.834 2.769c-10.749.651-22.149-2.117-22.149-20.52V32.311zM149.281 87.03l-31.269-43.157h14.983l23.451 33.223 24.103-33.223h14.983L163.938 87.52l30.291 42.831h-13.68l-23.777-32.897-23.777 32.897h-14.983l31.269-43.321zM237.548 43.059c29.151 0 38.108 10.912 38.108 45.274 0 32.083-8.957 42.832-38.108 42.832s-38.108-11.889-38.108-42.832c0-35.339 9.771-45.274 38.108-45.274zm0 76.054c17.588 0 26.057-2.28 26.057-30.78 0-30.942-7.003-33.222-26.057-33.222-18.24 0-26.057 2.117-26.057 33.222 0 28.826 9.283 30.78 26.057 30.78z"/>
</svg>
