<svg xmlns="http://www.w3.org/2000/svg" viewBox="0 0 566.93 141.73">
  <path d="M55.723 47.119c-3.347 7.253-5.021 13.737-5.021 19.454 0 11.785 4.043 19 12.133 21.65 2.369.628 4.793.941 7.269.941a30.73 30.73 0 0 0 7.479-.941c5.02-1.323 9.518-3.311 13.492-5.962 3.974-2.648 6.484-5.193 7.53-7.635 2.788-6.484 5.787-9.727 8.995-9.727 1.604 0 2.684.907 3.243 2.72.278.698.348 1.464.209 2.301-.698 5.439-2.196 10.825-4.498 16.16-2.301 5.334-5.543 11.452-9.727 18.355 8.367.068 16.002.976 22.905 2.719 1.464.349 2.196.837 2.196 1.465 0 .766-1.012.905-3.033.418-4.811-1.255-11.75-1.883-20.813-1.883h-2.719c-4.254 6.135-9.92 11.558-16.996 16.264-7.078 4.707-13.962 7.932-20.656 9.675-3.697.976-6.834 1.465-9.413 1.465-2.581 0-4.743-.314-6.485-.941-5.089-1.883-7.635-4.358-7.635-7.427 0-.906.245-1.882.732-2.928 1.883-4.184 6.833-8.054 14.852-11.609 6.066-2.72 12.463-4.568 19.192-5.544 6.728-.977 14.277-1.534 22.644-1.673 5.159-8.718 8.681-17.292 10.563-25.729l.418-1.778c-3.347 3.208-7.13 6.05-11.348 8.524-4.22 2.476-7.896 4.201-11.034 5.177-5.021 1.605-9.152 2.406-12.394 2.406s-6.084-.453-8.524-1.36c-4.463-1.532-8.089-4.602-10.877-9.203-2.999-4.88-4.498-10.703-4.498-17.467 0-6.763 1.778-14.015 5.334-21.755-4.602-4.741-6.903-9.779-6.903-15.113s2.161-10.407 6.485-15.218c.836-.905 1.446-1.237 1.83-.994.382.245.226.854-.471 1.83-3.138 4.184-4.707 8.403-4.707 12.656 0 4.881 1.812 9.449 5.439 13.701.418-.905 1.185-2.265 2.301-4.079 5.439-8.924 12.829-15.757 22.173-20.5 7.321-3.765 14.397-5.648 21.231-5.648 1.883 0 3.766.141 5.648.418 8.995 1.396 15.061 5.09 18.199 11.086 1.255 2.371 1.883 4.934 1.883 7.688 0 2.755-.873 5.7-2.615 8.838-3.906 6.764-10.739 11.505-20.5 14.224a57.59 57.59 0 0 1-15.793 2.196c-11.295-.001-20.535-2.406-27.715-7.217zm-16.212 79.802c0 1.951 1.673 3.276 5.02 3.975 1.115.277 2.335.418 3.661.418 4.95 0 11.226-1.777 18.827-5.334 9.622-4.393 17.257-10.634 22.905-18.722-7.321.21-13.737.767-19.244 1.674-7.949 1.185-15.516 4.079-22.696 8.681-5.649 3.624-8.473 6.728-8.473 9.308zM99.023 13.127c-5.998 0-12.342 2.023-19.036 6.066-9.831 5.857-17.466 14.26-22.905 25.206 3.277 2.51 7.06 4.288 11.348 5.334s7.722 1.569 10.302 1.569c14.711 0 25.834-3.938 33.364-11.818 3.765-4.043 5.648-8.088 5.648-12.133 0-6.414-3.592-10.737-10.773-12.969-2.65-.837-5.299-1.255-7.948-1.255z"/>
  <path d="M132.281 53.499c0 3.138-1.987 6.102-5.961 8.89 1.394.07 3.259.104 5.596.104 2.335 0 5.282-.173 8.838-.523.139.209.209.768.209 1.673 0 .907-.418 2.249-1.255 4.027a153.822 153.822 0 0 1-2.249 4.603l-1.882 3.66a75.206 75.206 0 0 0-1.987 4.235 65.484 65.484 0 0 0-1.83 4.603c-1.744 5.3-1.464 7.948.836 7.948 2.929 0 7.251-5.82 12.969-17.466.487-.906.889-1.256 1.203-1.047.314.21.471.471.471.785 0 .313-.454 1.396-1.359 3.242a177.713 177.713 0 0 1-2.929 5.7c-1.046 1.953-2.685 4.22-4.916 6.798-2.651 3.208-5.195 4.812-7.635 4.812-2.719 0-4.602-1.638-5.648-4.916-.209-.627-.314-1.568-.314-2.823 0-1.256.4-2.929 1.203-5.021.801-2.092 2.074-4.637 3.817-7.636 1.742-2.996 2.719-4.758 2.929-5.281a4.075 4.075 0 0 0 .313-1.517c0-2.161-2.79-3.311-8.367-3.452l-1.255 3.347c-4.393 11.505-8.612 19.21-12.655 23.114-.696.628-1.046.418-1.046-.628 0-.209.07-.452.209-.731 3.904-5.159 7.285-11.26 10.145-18.304 2.858-7.042 4.846-13.735 5.962-20.081.418-2.161 1.394-3.242 2.928-3.242 1.533 0 2.649.977 3.347 2.928.209.63.313 1.362.313 2.199z"/>
  <path d="M149.957 79.333c-.977 2.371-1.464 5.02-1.464 7.948 0 1.953.435 3.504 1.308 4.654.871 1.15 2.108 1.726 3.713 1.726 6.344 0 12.097-5.961 17.257-17.885.487-1.114 1.08-1.603 1.778-1.464.278.07.418.245.418.522 0 .28-.784 2.11-2.353 5.491-1.569 3.383-3.156 6.118-4.759 8.21-3.556 4.882-7.949 7.321-13.179 7.321-2.79 0-5.161-.905-7.112-2.719-1.953-1.812-2.929-4.288-2.929-7.426s.749-6.467 2.249-9.988c1.499-3.521 3.538-6.799 6.118-9.832 2.579-3.033 5.543-5.246 8.89-6.641 1.604-.696 3.138-1.046 4.602-1.046s2.824.418 4.079 1.255c1.185.977 1.778 2.058 1.778 3.242 0 4.184-2.51 8.194-7.53 12.028-1.535 1.187-3.697 2.249-6.485 3.19-2.789.943-4.915 1.414-6.379 1.414zm17.571-16.735c0-1.394-.559-2.092-1.673-2.092-1.953 0-4.916 2.406-8.89 7.217-2.372 2.928-4.463 6.207-6.275 9.832 1.185 0 2.91-.419 5.177-1.256 2.265-.836 4.236-1.951 5.909-3.346 3.833-3.277 5.752-6.728 5.752-10.355z"/>
  <path d="M197.543 75.619c-2.301 4.43-3.679 7.74-4.131 9.937-.454 2.196-.68 3.975-.68 5.334s.523 2.04 1.569 2.04c1.324 0 2.963-1.22 4.916-3.661 2.858-3.556 5.682-8.192 8.472-13.91.278-.628.591-.976.941-1.046.558-.209.837 0 .837.627 0 .35-.104.769-.314 1.256-6.416 12.969-11.818 19.453-16.211 19.453-2.023 0-3.661-.976-4.916-2.929-.627-1.046-.941-2.439-.941-4.184 0-1.742.348-3.869 1.046-6.38-5.579 8.995-10.39 13.492-14.434 13.492-1.116 0-2.127-.348-3.033-1.046-2.092-1.464-3.138-3.975-3.138-7.53 0-6.833 2.963-13.77 8.89-20.813 3.347-3.904 7.46-6.449 12.341-7.635 1.324-.348 2.579-.523 3.766-.523 3.206 0 5.925 1.116 8.158 3.347.696.768.905 1.5.627 2.196-.279.698-.873.977-1.778.837-.768-2.51-2.441-3.766-5.021-3.766-2.999 0-6.693 2.372-11.086 7.112-2.51 2.79-4.847 6.067-7.007 9.832-2.72 4.533-4.079 8.158-4.079 10.877 0 2.72.871 4.079 2.615 4.079 4.184 0 9.657-6.414 16.42-19.244 1.324-2.579 2.44-4.341 3.347-5.282.905-.941 2.056-1.412 3.451-1.412.278 0 .994.104 2.144.313 1.151.209 2.004.245 2.562.105-1.253 1.256-3.031 4.097-5.333 8.524z"/>
  <path d="M205.073 87.072c0-5.787 2.788-15.479 8.367-29.076h-5.438c-.35 0-.575-.191-.68-.575a1.657 1.657 0 0 1 .104-1.15c.173-.382.435-.575.784-.575h6.275c2.51-5.507 4.846-10.109 7.008-13.806 2.16-3.695 4.147-6.187 5.961-7.478 1.812-1.29 3.12-1.935 3.922-1.935.801 0 1.376.07 1.726.209 1.603.768 2.406 2.353 2.406 4.759 0 2.405-.803 5.318-2.406 8.733a244.472 244.472 0 0 1-4.707 9.518h5.021c.348 0 .575.193.68.575.104.384.069.768-.104 1.15-.175.384-.437.575-.785.575h-6.066c-3.835 6.485-8.472 12.237-13.911 17.258l-2.406 10.668a11.853 11.853 0 0 0-.313 2.667c0 .873.244 1.762.732 2.667.487.907 1.255 1.359 2.301 1.359 1.185 0 2.51-.418 3.974-1.255 3.347-2.51 7.042-7.773 11.087-15.793.278-.628.609-1.01.993-1.15.383-.14.61-.052.68.261.068.314-.036.82-.314 1.518-2.301 4.811-4.115 8.228-5.438 10.249-3.766 6.066-7.776 9.1-12.028 9.1-2.162 0-3.94-.801-5.334-2.405-1.394-1.605-2.091-3.626-2.091-6.068zm19.663-29.076h-4.916c-.837 1.953-2.72 6.589-5.648 13.911 3.766-3.905 7.286-8.541 10.564-13.911zm1.36-2.301c4.602-8.227 6.903-13.945 6.903-17.153 0-1.394-.245-2.092-.732-2.092-.768 0-1.935 1.116-3.504 3.347-1.569 2.232-4.202 7.531-7.896 15.898h5.229zM307.151 105.48c-.628 0-1.255-.07-1.883-.21-3.347-.627-5.021-3.592-5.021-8.89 0-8.576 4.323-23.184 12.97-43.823 3.347-7.809 5.821-15.409 7.426-22.801.628-2.858.941-5.141.941-6.851 0-1.708-.07-3.049-.209-4.027-.35-3.067-1.501-5.193-3.452-6.38-3.487-1.883-7.392-2.824-11.714-2.824-4.533 0-9.309 1.116-14.329 3.347a78.36 78.36 0 0 0-14.171 8.158c-4.429 3.208-8.456 7.025-12.081 11.453-3.626 4.429-6.328 9.065-8.105 13.91-1.778 4.847-2.667 9.222-2.667 13.126 0 1.605.139 3.138.418 4.602 1.114 4.811 3.206 8.403 6.275 10.773 3.067 2.371 6.693 3.556 10.877 3.556 5.857 0 11.348-2.579 16.473-7.74 5.125-5.159 7.688-10.632 7.688-16.421 0-3.138-.628-5.402-1.883-6.798-1.255-1.394-2.546-2.092-3.87-2.092-1.325 0-2.65.193-3.974.575-1.326.384-1.987.35-1.987-.104 0-.453.801-1.046 2.405-1.778a11.955 11.955 0 0 1 5.021-1.098c1.742 0 3.347.523 4.811 1.569 2.72 2.092 4.079 5.265 4.079 9.518 0 4.254-1.621 8.524-4.863 12.812-3.242 4.288-7.234 7.74-11.976 10.354-4.742 2.615-9.431 3.922-14.067 3.922-4.638 0-8.942-1.689-12.917-5.072-3.975-3.381-6.625-7.931-7.949-13.649-.348-1.673-.523-3.452-.523-5.334 0-4.393 1.081-9.168 3.243-14.329 2.16-5.159 5.282-9.952 9.361-14.381 4.079-4.427 8.488-8.122 13.23-11.086a81.55 81.55 0 0 1 15.061-7.374c5.299-2.021 10.284-3.033 14.957-3.033 4.67 0 8.924.732 12.76 2.196 6.763 2.928 10.146 9.135 10.146 18.617 0 6.974-2.511 15.62-7.531 25.938-3.138 6.416-5.927 13.319-8.367 20.709-3.626 10.947-5.438 18.549-5.438 22.801 0 3.206 1.08 4.811 3.242 4.811 4.323 0 11.888-5.613 22.696-16.839 7.6-7.878 13.561-16.525 17.885-25.938 2.788-5.996 4.184-11.505 4.184-16.525 0-2.649-.209-4.514-.627-5.596a63.79 63.79 0 0 0-.837-2.092c-.141-.313-.419-.591-.837-.836-.418-.244-.697-.366-.837-.366a27.877 27.877 0 0 0-3.033-.68c-1.046-.173-1.657-.644-1.83-1.412-.175-.767.191-1.219 1.099-1.36l1.987.209c3.206.907 5.995 3.174 8.367 6.798 1.323 2.023 1.986 4.445 1.986 7.269s-.663 6.154-1.986 9.988c-3.208 8.508-8.158 16.891-14.853 25.154-6.693 8.263-13.301 14.59-19.819 18.982-6.522 4.396-11.838 6.592-15.952 6.592zM361.747 93.139c1.323 0 2.719-.662 4.184-1.987 2.578-2.579 5.856-7.845 9.831-15.793.487-1.046.976-1.36 1.464-.941.14.141.21.366.21.68s-.279 1.082-.837 2.301a708.28 708.28 0 0 1-1.517 3.295c-.454.978-1.325 2.562-2.615 4.759-1.291 2.196-2.457 3.888-3.503 5.072-2.86 3.278-5.562 4.916-8.106 4.916-2.546 0-4.376-.767-5.49-2.301-1.116-1.533-1.674-3.242-1.674-5.125s.452-3.938 1.359-6.171l6.694-17.048c.139-.418.209-.976.209-1.673 0-.696-.419-1.603-1.255-2.719l5.752-.104c1.604 0 2.545.297 2.824.889.277.593.068 1.517-.628 2.772l-8.367 19.559c-1.187 2.58-1.777 4.776-1.777 6.589 0 2.02 1.08 3.03 3.242 3.03zm10.249-38.385c-.977.837-2.057 1.255-3.242 1.255-1.187 0-2.127-.418-2.823-1.255-.698-.837-.978-1.847-.837-3.033.209-1.185.801-2.196 1.778-3.033.976-.836 2.056-1.255 3.242-1.255 1.185 0 2.144.418 2.876 1.255.732.837.993 1.849.784 3.033-.209 1.186-.802 2.196-1.778 3.033z"/>
  <path d="M402.223 66.991c0-3.974-1.639-5.961-4.916-5.961h-.837c-1.255.141-1.986-.104-2.196-.732-.209-.628.104-1.046.941-1.255.837-.209 1.742-.243 2.72-.104 3.625.559 6.101 2.267 7.426 5.125.905 1.744 1.359 3.451 1.359 5.125 0 5.998-2.196 11.889-6.589 17.676-4.393 5.856-10.076 8.785-17.048 8.785-2.581 0-4.673-.732-6.275-2.196-1.605-1.464-2.406-3.415-2.406-5.857 0-2.928 1.674-7.878 5.021-14.852-5.718 10.809-9.413 17.014-11.087 18.617-.695.628-1.046.418-1.046-.628 0-.209.07-.452.21-.731 2.439-3.207 7.303-11.924 14.59-26.148 7.285-14.224 12.395-23.533 15.322-27.925 2.37-3.416 4.671-5.125 6.903-5.125h.627c.068 0 .68.104 1.83.314 1.15.209 2.003.245 2.562.104-2.301 2.441-5.928 7.321-10.878 14.643-12.272 18.199-18.407 31.795-18.407 40.791 0 3.696 1.185 5.788 3.556 6.275.209.07.453.104.732.104 2.16 0 4.863-1.936 8.105-5.805 3.242-3.87 5.909-8.279 8.001-13.231 1.187-2.58 1.78-4.917 1.78-7.009zM416.55 79.333c-.978 2.371-1.464 5.02-1.464 7.948 0 1.953.435 3.504 1.307 4.654.871 1.15 2.108 1.726 3.714 1.726 6.344 0 12.096-5.961 17.257-17.885.487-1.114 1.08-1.603 1.778-1.464.277.07.418.245.418.522 0 .28-.784 2.11-2.354 5.491-1.568 3.383-3.155 6.118-4.759 8.21-3.556 4.882-7.948 7.321-13.178 7.321-2.79 0-5.161-.905-7.112-2.719-1.953-1.812-2.929-4.288-2.929-7.426s.749-6.467 2.249-9.988c1.498-3.521 3.538-6.799 6.118-9.832 2.579-3.033 5.543-5.246 8.891-6.641 1.603-.696 3.138-1.046 4.602-1.046s2.824.418 4.079 1.255c1.185.977 1.778 2.058 1.778 3.242 0 4.184-2.511 8.194-7.531 12.028-1.534 1.187-3.696 2.249-6.484 3.19-2.789.943-4.915 1.414-6.38 1.414zm17.571-16.735c0-1.394-.559-2.092-1.674-2.092-1.952 0-4.915 2.406-8.89 7.217-2.371 2.928-4.463 6.207-6.275 9.832 1.185 0 2.91-.419 5.177-1.256 2.266-.836 4.236-1.951 5.909-3.346 3.834-3.277 5.753-6.728 5.753-10.355z"/>
  <path d="M446.67 93.452c.905.141 1.533.209 1.883.209 2.788 0 5.543-1.637 8.263-4.915 1.464-1.812 4.079-6.381 7.845-13.701.139-.349.382-.523.731-.523.628-.068.941.175.941.732 0 .141-.156.541-.471 1.202a50.74 50.74 0 0 0-.889 1.987c-.279.664-.732 1.621-1.359 2.876a51.085 51.085 0 0 1-1.621 3.033c-.455.769-1.03 1.71-1.727 2.824-.697 1.116-1.396 1.987-2.092 2.615l-2.196 2.301a9.892 9.892 0 0 1-4.184 2.51c-2.58.837-5.091.905-7.53.209-1.604.696-3.033 1.046-4.288 1.046-4.952 0-7.949-1.951-8.995-5.856-.209-.905-.313-2.004-.313-3.295 0-1.289.437-2.526 1.308-3.713.871-1.185 1.794-1.812 2.771-1.883 3.556-6.763 6.589-12.864 9.1-18.303 2.788-5.925 6.03-8.89 9.727-8.89.976 0 1.935.228 2.876.68.941.454 1.29.959 1.046 1.517-.245.559-.75.663-1.517.313-.768-.348-1.43-.523-1.987-.523-.559 0-1.046.104-1.464.314-2.371 1.116-3.556 3.521-3.556 7.217 0 1.953.277 3.556.836 4.811a173.99 173.99 0 0 0 1.883 4.079c1.604 3.626 2.405 6.589 2.405 8.89 0 2.302-.731 4.568-2.196 6.799-1.464 2.232-3.209 4.045-5.23 5.438zm-11.4-3.556c0 .418.035.872.105 1.359.557 1.883 1.846 2.824 3.869 2.824.837 0 1.533-.14 2.092-.419-2.58-1.603-3.975-4.218-4.184-7.844-1.255 1.256-1.882 2.616-1.882 4.08zm7.844 2.824c3.067-2.369 4.602-6.205 4.602-11.505 0-2.16-.245-5.125-.731-8.89-.489-3.766-.732-6.31-.732-7.635 0-1.324.034-2.23.104-2.719-5.3 10.6-8.576 17.048-9.831 19.349 1.464 0 2.196 1.046 2.196 3.138 0 4.114 1.464 6.868 4.392 8.262z"/>
</svg>
