<svg xmlns="http://www.w3.org/2000/svg" viewBox="0 0 566.93 141.73">
  <path d="M104.004 101.958c.139 2.087.278 4.175.278 6.4-.834 0-.695-.974-1.669-.974-1.67 0-3.896.695-4.453.835h-2.227c-.974-.418-1.252-.975-1.948-.975h-.695c-1.252 0-2.087.557-3.2.975l-2.922.139v-5.287c-1.669.417-1.948 1.113-3.618 1.67-2.365.557-4.731 1.252-7.096 1.67-2.366.417-4.731.695-7.514.695-2.644 0-5.287-.278-7.931-.835-2.644-.974-5.288-1.53-7.931-3.062-2.227-1.112-4.313-2.922-5.983-4.452-2.087-1.809-3.2-3.618-4.731-5.705-1.113-2.087-2.226-4.035-3.2-6.122-.696-2.227-1.113-4.175-1.67-6.401-.974-4.035-1.113-7.931-1.53-11.966 0-1.531.139-2.922.557-4.453v-7.097c.417-3.2.695-5.983 1.669-9.184.557-3.2 1.531-6.54 3.062-9.74.556-1.53 1.252-3.2 2.365-4.731.696-1.669 1.809-3.061 3.339-4.592a19.806 19.806 0 0 1 4.174-4.174c1.67-1.53 3.479-2.226 5.566-3.339 1.809-.696 3.618-1.392 5.705-1.809a41.315 41.315 0 0 1 5.844-.417c3.757 0 7.235.417 10.436 1.391 3.339.974 6.262 2.227 9.184 3.479 2.922 1.252 5.705 2.783 8.627 4.313.139.139.139.556.139.974 0 1.252-.835 1.948-1.809 2.922-.974.974-2.366 1.809-2.922 2.783-.417.696-.974.974-1.113 1.392-.139.139-.139.417-.139.835 0 .278.139.695.557 1.391.696.696 1.531 1.531 1.948 2.087.139.139.278.417.278.835-.139 0-.557-.278-1.252-.696-1.531-.417-3.339-1.531-5.148-2.644-1.809-.974-3.618-1.809-5.148-2.226-.974-.139-1.53-.278-1.948-.278l-.974.139-1.67.557c1.531.557 2.783 1.113 4.036 1.669l3.2 1.392c2.644 1.252 6.957 3.479 6.957 5.009-3.2-2.087-6.4-3.757-9.601-5.009-1.669-.557-3.2-1.392-4.73-1.809l-4.87-1.252c-1.113-.417-2.505-.278-3.618-.278-.974 0-1.948 0-2.644.139-.974.139-1.531.278-2.504.696l-1.948 1.391c-.974.696-1.392 1.113-1.809 1.809-.695.696-1.113 1.809-1.669 2.783-.974 1.809-1.809 4.035-2.505 6.679-.834 2.644-1.391 5.566-1.809 8.488-.417 2.783-.417 5.566-.557 8.766 0 2.922.139 5.705.417 8.209.417 2.644 1.113 5.148 2.087 7.235.974 2.088 1.809 3.34 3.34 4.87 1.252 1.113 3.061 2.227 4.73 2.644 1.392.418 3.062.557 4.87.557h1.948c2.087-.139 4.453-.557 7.096-1.53 3.479-.835 5.427-2.227 8.766-4.175l.835-.139V72.738H74.505c-.139-.279-.139-.696-.139-1.253 0-.696 0-1.113.139-1.392v-7.235c0-.696 0-1.252-.139-1.67s-.557-.557-.557-.974c0-.139.139-.278.278-.417.139-.139.278-.278.557-.278h.696c.278 0 .417 0 .557-.139.417-.417.278-1.531.696-2.087-.974 0-1.67-.417-2.783-.835 1.252 0 2.366-.557 3.618-.696h5.566c2.087 0 4.035.417 6.123.557l3.757.139c.557 0 1.252 0 1.809-.139 1.53-.139 2.644-.417 3.757-.417-.417 0-.417.696-.417 1.67 0 1.809.278 3.896.278 4.453v1.809l.835-.278c.417-.417.417-.974.834-.974.139 0 .278.139.557.417.139.417.278.696.278 1.113l-.139 1.669c0 .417.139.557.139.696.417.974 1.392.974 2.087 1.531 0-2.087.417-3.34.974-5.427l.556 7.096v8.488c0 3.757-.278 7.235-.417 11.549 0 .418 0 .835.139.835.696.418.835.696.974 1.113.417.557.557 1.113 1.113 1.113l-2.227 1.53v7.653zM167.59 33.777v14.471c0 4.87-.139 9.74-.139 14.61l-.139 17.532-.139 2.922c0 .975-.139 1.948-.278 3.062 0 .139-.139.139-.139.695v1.948c-.417 2.087-.834 3.757-1.391 5.844-.278 1.253-.835 2.088-1.252 3.2-.696 1.113-1.252 2.088-1.948 3.062-.834 1.113-1.809 1.948-2.783 2.783-1.113.974-2.087 1.809-3.061 2.227-1.113.695-2.087 1.112-3.201 1.53-1.252.278-2.365.557-3.339.695-2.087.557-4.035.696-6.122.696h-.835l-.696-.14h-1.392a23.451 23.451 0 0 1-3.061-.557c-2.087-.278-4.174-.835-6.401-1.809-1.669-.835-3.339-1.948-4.731-3.2-1.53-1.392-2.783-2.783-3.757-4.313-.974-1.392-1.669-2.783-2.365-4.453-.835-1.252-1.113-2.504-1.67-4.035l-.278-.557-.417-1.669c-.417-.835-.557-1.531-.696-2.366-.417-1.669-1.391-4.73-1.391-6.679V70.79c0-2.644.278-6.957.557-9.601.417-3.2.834-10.575 1.391-13.915.417-3.2.696-6.4.835-9.323l.278-.417c.557-.557 1.252-.835 1.948-.835.417 0 1.113.139 2.087.557 1.531.556 2.505 1.53 4.035 1.669.417 0 .974.417 1.531.417s1.252-.139 1.67-1.67c.417-.974.834-2.783.974-3.757.139-.417.278-.557.417-.557l.278 1.809c.139.417.139 1.113.139 2.087 0 1.669-.278 3.618-.417 5.426-.139 2.644-.557 5.288-.557 7.097v.835c0 3.2.696 3.479 1.252 5.009 2.366-14.471 1.531-21.428 2.922-22.124 0 2.783.139 5.148-.278 7.792l-.695 7.096c-.417 4.87-.974 9.323-1.67 14.193-.139 1.67-.139 3.339-.139 4.731v2.783c0 1.948.557 7.653.696 9.184l.278 3.896.696 1.391c.417.975.834 1.67.974 2.505.696.696.835 1.253 1.531 1.809.278.557.696.696 1.113 1.113.696.278 1.252.418 2.087.835.835.278 1.392.278 2.366.418l1.948.835c.974-.14 1.67-.278 2.227-.557l1.531-.696c.417-.417.834-.695 1.113-1.392.278-.557.557-.974.835-1.809.139-.835.278-1.53.278-2.644.139-1.948.139-3.618.139-5.983V67.172l.278-4.313c0-6.818 0-21.011-.139-28.107v-.974c1.392 1.531.696 4.035 1.67 4.035 1.53 0 3.757-3.2 4.453-3.2.695-.417 1.252-.557 1.391-.557.278 0 .557.139.835.557.974.696 1.113 3.479 2.087 3.896.139.139.278.139.557.139 1.252 0 2.226-2.504 3.339-4.035.278-.417.557-.557.974-.557.417 0 .556.139.974.139.276-.001.554-.14.832-.418zM229.506 94.026v.557c0 1.253-.139 2.366-.557 3.479-.556 1.531-1.113 2.645-1.53 4.175-.139.695-.557 1.53-.557 2.505l.139.695c.417.557.835.835.835 1.252 0 .14-.139.278-.557.418-.139.139-.278.139-.557.139-.974 0-1.809-.695-2.783-.695-.974.417-1.252 1.113-1.948 1.67 2.087.695 5.009.974 4.87 2.227-2.227-.557-4.313-.557-6.679-1.253-10.992-1.948-19.062-3.2-21.15-3.2h-1.252l-1.391.278-1.113.278c-1.531.417-2.644 1.252-3.061 1.252-.417.14-.974.418-1.392.418-.139 0-.417-.14-.835-.278l-2.365-1.948c-1.252 0-2.087 1.113-3.201 2.087-.417.14-.695.278-.834.278l-1.113-.139c-.278 0-.557 0-.696.139-.139-5.009-.278-10.019-.278-15.027l1.252-28.525c.278-6.122.557-3.061.557-9.044v-7.653c0-3.757-.139-7.096-.278-10.853.696-.417 1.53-.557 2.504-.557l1.252.139c1.252.139 2.226.417 3.339.417h.557l1.531.139c.557 0 .974-.278 1.391-.835.557-.696.557-2.087.974-2.087.139 0 .417.278.557.835.417.974.417 2.365.417 3.618h7.931c4.592 0 9.601.417 13.497.974 3.2.557 6.123.974 9.323 1.67v.695a13.74 13.74 0 0 1-.417 3.34c-.417 1.53-.557 2.783-.974 4.035-.139.974-.278 1.669-.278 2.365 0 .417 0 .835.139 1.113.139.417.696.696.696 1.113 0 .139-.139.278-.417.417-.139.139-.417.139-.834.139l-2.087-.139c-.974.139-.974 1.113-1.392 1.809 1.67.417 3.896.139 4.174 1.392l-5.705-.278c-3.479-.417-10.854-1.392-16.28-1.392-1.252-.139-2.504-.278-3.757-.278l-.557 8.349 1.948-.139 12.523-.557c2.087-.417 3.896-.557 5.566-.696-.278 0-.417.417-.417 1.113 0 1.669.835 4.453.835 4.87.139.557.139 1.252.139 1.809v.696c-.139.974-.696 1.252-.696 2.504 0 1.253.557 2.365.974 3.479l.139 2.783-15.027 1.251c-2.227.418-4.731.557-7.096.696l-.139 2.504-.139 4.453c3.2 0 13.08 1.113 21.985 2.365 3.477.975 6.817 1.671 10.295 2.644zm-10.714-31.168h-.139.139zM295.04 107.245l4.313 6.68c-.278-.418-.557-.557-.974-.557-1.531 0-3.757 2.087-4.453 2.782-.557.418-1.113.975-2.087 1.113-.557 0-1.252-.278-1.67-.278l-.418.14c-1.529.417-1.947 1.392-2.922 2.365-.974.695-1.67.695-2.365 1.252a389.13 389.13 0 0 1-7.653-13.497c-2.226-4.313-4.035-8.07-5.844-12.384a50.923 50.923 0 0 1-2.505-6.4c-2.783.278-6.261.417-10.436.417v12.941c.417 2.226.556 4.313.556 6.4-.834-.418-.556-1.531-1.53-1.531-1.531 0-3.479.975-4.174 1.392-.696.14-1.113.278-1.531.278-.278 0-.557-.139-.974-.278-.557-.417-1.391-1.53-1.948-1.669l-.696-.14c-1.113 0-1.948 1.113-2.922 1.809l-.974.278-1.252-.139c-.278 0-.417 0-.417.139V43.795a5.591 5.591 0 0 1 2.087-.417c2.087 0 4.035.696 5.844.696h.696c.974 0 1.392-.139 1.392-.278v-1.113c0-.417-.278-.834-.974-1.252-.974-.557-2.783-.696-2.783-1.113 0-.139.417-.278 1.252-.417.974-.417 2.922-.278 4.592-.278.696.139 1.67.139 2.366.139h.974c1.113 0 2.783 0 2.783-.696s-9.879-.278-10.436-1.948c0-.139 4.453-.278 8.349-.278 14.61 0 23.655.834 33.256 9.601 4.453 3.896 6.4 8.349 8.488 15.306-.696 8.209-6.958 17.672-13.08 20.732-.835.418-1.67.835-2.505 1.113.418.974.695 1.948 1.113 2.783 1.531 3.479 2.645 7.096 4.313 10.854 1.532 3.199 3.062 6.816 5.149 10.016zm-34.786-33.534c2.922 0 5.844-.556 8.627-.695 15.167-.557 16.559-14.471 10.854-17.671-6.123-2.783-4.035-2.783-15.445-3.618-2.087-.417-4.035-.278-5.844-.417l.278 2.644-.278 19.758h1.808zM324.676 38.229c1.113 0 4.87-3.618 5.566-1.809.557 1.809-.14 4.87.278 6.679.556 1.67 1.391 1.809 2.365 2.783.139-4.313-.696-7.792.835-10.019 0 4.313.557 8.488.557 13.08 0 8.07-1.392 19.758-1.392 25.742-.696 6.679-1.113 13.358-1.113 20.176 0 4.87.139 9.184 0 14.054-1.948-3.339-6.122-.557-6.54-.557-.974.14-1.948.418-2.922 0-.695-.557-1.252-1.947-2.227-2.087-1.53-.417-2.782.695-4.313 1.67-.974.695-2.087-.14-3.2.417.14-9.322.557-18.228.974-27.133.418-8.627 2.088-31.029 1.948-43.274v-.139c2.922-1.252 6.262.417 9.184.417zM383.948 107.106c-4.313.139-4.313.139-8.627.557l-21.429 1.809c-.695-1.67-.695-3.617-.695-5.705 0-.974 0-1.947-.14-2.922v-.974c0-.975 0-1.81-.695-2.365-.418-.418-1.392-.835-1.392-1.253 0-.139.14-.278.418-.417.695-.418 1.112-.418 2.087-.418l.417-3.617V37.117c.835-.278 1.67-.417 2.365-.417 2.227 0 4.175.835 6.262.835l1.948.139c.695 0 1.252-.278 1.67-.834.417-.696.557-1.809.974-1.809.418 0 .557.278.696.696.278.557.417 1.252.417 2.087l-.139 2.922.139 1.391c.418 1.531 1.252 1.531 2.227 2.505 0-4.035-.557-7.931.695-9.601l1.81 12.523-1.81 19.62v15.724c0 2.226-.139 4.452.278 6.539 3.896-.417 7.792-.278 11.827-.278h1.948c2.087 0 4.035 0 5.845-.139l.695-.14a72.818 72.818 0 0 1 7.653-.417c-.418 1.113-1.113.557-1.113 1.809 0 1.531.835 3.757.974 4.453l.14 1.252-.14 1.531c-.139.695-.974 1.112-.974 2.087v.557c0 1.113.557 2.365.974 3.479l.14 3.479h-15.445zM444.891 107.106c-4.313.139-4.313.139-8.627.557l-21.429 1.809c-.695-1.67-.695-3.617-.695-5.705 0-.974 0-1.947-.14-2.922v-.974c0-.975 0-1.81-.695-2.365-.418-.418-1.392-.835-1.392-1.253 0-.139.14-.278.418-.417.695-.418 1.112-.418 2.087-.418l.417-3.617V37.117c.835-.278 1.67-.417 2.365-.417 2.227 0 4.175.835 6.262.835l1.948.139c.695 0 1.252-.278 1.67-.834.417-.696.557-1.809.974-1.809.418 0 .557.278.696.696.278.557.417 1.252.417 2.087l-.139 2.922.139 1.391c.418 1.531 1.252 1.531 2.227 2.505 0-4.035-.557-7.931.695-9.601l1.81 12.523-1.81 19.62v15.724c0 2.226-.139 4.452.278 6.539 3.896-.417 7.792-.278 11.827-.278h1.948c2.087 0 4.035 0 5.845-.139l.695-.14a72.818 72.818 0 0 1 7.653-.417c-.418 1.113-1.113.557-1.113 1.809 0 1.531.835 3.757.974 4.453l.14 1.252-.14 1.531c-.139.695-.974 1.112-.974 2.087v.557c0 1.113.557 2.365.974 3.479l.14 3.479h-15.445zM531.713 98.201c-.278-.278-.557-.418-.835-.418s-.417 0-.557.14c-.139.139-.557.417-.974.974-.418.557-.835 1.253-.835 1.67-.278.278-.418.557-.418.975-.417.417-.695 1.391-1.809 1.391l-1.252-.139c-.278 0-.418 0-.557.139-.418.418-.696.975-.696 1.392-.139.975-.278 1.531-.278 1.948-.139.417-.417.695-.974 1.113-.139.417-1.392 2.922-1.392 3.34-6.122-4.175-7.653-8.488-9.74-11.828-.835-1.252-1.948-2.644-2.922-3.896-.417 0-.835.139-1.252.139-4.313.278-7.235 0-12.384.835-1.253 0-2.505 0-3.757.14l-4.313.557-.835 5.844c-.418 4.035-.557 7.653-.975 11.41 0-.975-.417-1.531-1.252-1.531l-.835.14c-1.252.417-2.227 1.113-2.644 1.113h-1.113c-.418 0-.696 0-.975-.14-.556-.557-.834-1.53-1.391-1.67l-.557-.139c-.975 0-1.81.835-2.783 1.392-.139.139-.417.278-.557.278l-1.252-.278c-.278 0-.418.139-.557.278-2.922-4.313-2.505-8.21-1.948-12.105.695-4.035 1.252-7.932 1.809-11.828 1.253-6.539 2.783-12.94 4.035-19.48.14-.417.14-.835.14-1.391.974-4.87 1.948-9.462 2.644-14.054.974-5.427 1.252-9.879 1.392-15.306.557-.278 4.174-.417 4.73-.417s.975.139 1.67.278c1.113.139 2.227.557 3.2.557l2.783-.139c.417 0 .835-.139 1.252-.557.557-.557.835-1.809.975-1.809.278 0 .417.278.417.695.14.974.14 1.67.14 2.783l3.757-.139c.974-.417 2.087 0 2.504-1.252.418-.417.14-1.669.557-1.669.278 0 .418.278.557.695l2.088 4.87c.557 1.252 1.947.557 2.644.974-.557-3.2-1.392-5.427-.418-6.957.696 3.339 1.81 6.122 2.783 9.879 1.53 6.54 1.948 10.158 4.035 15.167l3.2 7.792c.835 2.087 1.253 3.896 1.948 5.983l1.67 3.896c1.113.139 2.365.139 3.617.278l.14.557c.139 1.113.139 2.227 0 3.479-.278 1.392-.418 2.365-.418 3.062.696 1.252 1.531 2.504 2.505 3.617 2.088 2.78 4.036 5.146 6.263 7.372zm-29.499-17.672l-1.392-3.896c-4.73-12.245-5.148-14.193-7.096-21.707-2.088 12.105-2.644 17.254-3.757 22.263l-.835 4.87 4.313-.557c3.48-.416 5.567-.694 8.767-.973z"/>
</svg>
