<svg xmlns="http://www.w3.org/2000/svg" viewBox="0 0 566.93 141.73">
  <path d="M45.461 115.954l18.4-86.593c-5.636 2.362-10.008 5.896-13.116 10.599-3.108 4.704-4.662 10.475-4.662 17.312 0 1.616.093 2.932.28 3.947.187 1.016.382 1.824.59 2.424.207.602.404 1.067.591 1.399.186.332.279.622.279.87-2.197 0-4.145-.218-5.843-.653-1.7-.435-3.119-1.128-4.258-2.083-1.141-.953-2.011-2.216-2.611-3.792-.602-1.575-.901-3.522-.901-5.844 0-2.817.611-5.594 1.833-8.33 1.222-2.735 2.9-5.325 5.035-7.771 2.134-2.444 4.641-4.703 7.522-6.775a55.433 55.433 0 0 1 19.581-8.92 46.387 46.387 0 0 1 10.723-1.274c.953 0 1.834.021 2.642.062.808.042 1.626.104 2.455.187l-8.268 38.976a487.863 487.863 0 0 0 3.575-4.787 975.664 975.664 0 0 1 4.351-5.843c1.554-2.072 3.149-4.196 4.787-6.372a623.343 623.343 0 0 0 4.755-6.403 559.675 559.675 0 0 1 4.383-5.905c1.388-1.844 2.6-3.46 3.636-4.849a211.677 211.677 0 0 1 3.419-4.445h13.365L82.635 61.872c.828 0 1.595-.021 2.3-.062a36.336 36.336 0 0 1 2.114-.062c3.108 0 5.677.342 7.708 1.026 2.03.684 3.646 1.638 4.849 2.859a10.026 10.026 0 0 1 2.518 4.321c.476 1.657.715 3.46.715 5.409 0 2.652-.321 5.438-.963 8.36a172.012 172.012 0 0 1-2.145 8.672 306.116 306.116 0 0 0-2.145 8.205c-.643 2.611-.964 4.933-.964 6.963 0 1.989.445 3.74 1.336 5.252.891 1.514 2.103 2.56 3.637 3.14-2.735.787-5.139 1.347-7.211 1.679-2.073.331-3.875.497-5.408.497-2.073 0-3.751-.26-5.035-.777-1.285-.519-2.29-1.181-3.015-1.989a6.554 6.554 0 0 1-1.492-2.735 11.69 11.69 0 0 1-.404-3.015c0-2.154.352-4.651 1.057-7.49a315.421 315.421 0 0 1 2.331-8.827 234.595 234.595 0 0 0 2.331-9.045c.704-2.983 1.057-5.697 1.057-8.144 0-1.283-.135-2.455-.404-3.512-.27-1.057-.694-1.968-1.274-2.736-.581-.767-1.368-1.357-2.362-1.771-.995-.414-2.197-.622-3.605-.622-.581 0-1.233.031-1.958.093-.726.062-1.482.197-2.269.404l-10.194 47.99H45.461zM182.282 93.141c-1.203 3.44-2.508 6.424-3.917 8.951-1.409 2.528-2.87 4.662-4.382 6.402-1.513 1.741-3.057 3.15-4.631 4.228-1.575 1.078-3.108 1.906-4.6 2.486-1.492.581-2.921.974-4.289 1.182-1.368.206-2.611.311-3.729.311-3.605 0-6.476-.984-8.61-2.953-2.135-1.968-3.43-4.88-3.885-8.733a49.33 49.33 0 0 1-3.419 4.258 25.379 25.379 0 0 1-4.165 3.729c-1.534 1.099-3.243 1.989-5.128 2.674-1.886.684-3.969 1.025-6.248 1.025-2.197 0-4.311-.353-6.34-1.057-2.031-.704-3.834-1.865-5.408-3.481-1.576-1.616-2.839-3.729-3.792-6.341-.953-2.61-1.43-5.801-1.43-9.573 0-2.899.29-6.008.87-9.324a59.073 59.073 0 0 1 2.673-9.945 56.52 56.52 0 0 1 4.507-9.543c1.803-3.046 3.917-5.739 6.341-8.081a28.98 28.98 0 0 1 8.236-5.595c3.066-1.388 6.444-2.083 10.133-2.083 3.605 0 6.226.622 7.863 1.865 1.637 1.244 2.456 2.777 2.456 4.6v.933l1.368-6.776h18.338l-9.138 43.266a12.807 12.807 0 0 0-.436 2.083 16.754 16.754 0 0 0-.124 2.02c0 3.647 1.74 5.471 5.222 5.471 1.243 0 2.393-.32 3.45-.964 1.057-.642 2.021-1.501 2.891-2.579.871-1.077 1.637-2.352 2.3-3.823a33.313 33.313 0 0 0 1.678-4.631h5.345zm-32.076-28.72c0-.373-.083-.839-.249-1.399a5.042 5.042 0 0 0-.839-1.616c-.394-.518-.923-.953-1.585-1.305-.664-.352-1.513-.529-2.549-.529-1.782 0-3.471.581-5.066 1.741-1.596 1.161-3.057 2.704-4.382 4.631-1.327 1.927-2.508 4.113-3.543 6.558a62.693 62.693 0 0 0-2.642 7.553 62.37 62.37 0 0 0-1.647 7.646c-.373 2.508-.56 4.756-.56 6.744 0 2.446.228 4.331.684 5.657.456 1.327 1.004 2.311 1.647 2.953.642.643 1.337 1.025 2.083 1.149.746.125 1.409.187 1.989.187.953 0 1.958-.237 3.015-.715 1.057-.476 2.072-1.181 3.046-2.113.973-.933 1.865-2.103 2.673-3.513.808-1.408 1.419-3.046 1.834-4.91l6.091-28.719z"/>
  <path d="M246.558 93.141c-1.202 3.44-2.508 6.424-3.916 8.951-1.409 2.528-2.87 4.662-4.382 6.402-1.514 1.741-3.057 3.15-4.631 4.228-1.575 1.078-3.108 1.906-4.6 2.486-1.492.581-2.921.974-4.289 1.182-1.368.206-2.611.311-3.73.311-3.647 0-6.548-1.005-8.703-3.015-2.155-2.01-3.461-5.024-3.917-9.045-1.616 2.61-3.253 4.704-4.911 6.278-1.658 1.575-3.294 2.797-4.911 3.668-1.616.87-3.192 1.439-4.725 1.709-1.534.27-2.963.404-4.289.404-1.907 0-3.689-.291-5.346-.87a11.132 11.132 0 0 1-4.32-2.735c-1.223-1.243-2.187-2.817-2.891-4.725-.704-1.905-1.057-4.205-1.057-6.9 0-1.159.083-2.434.249-3.822.166-1.389.415-2.891.746-4.507l8.641-40.842h18.338l-9.138 43.266c-.249 1.327-.373 2.528-.373 3.605 0 1.451.269 2.684.808 3.699.538 1.016 1.533 1.522 2.984 1.522 1.243 0 2.382-.279 3.419-.839 1.035-.56 1.979-1.337 2.828-2.331.849-.995 1.595-2.186 2.238-3.574a35.862 35.862 0 0 0 1.709-4.507l8.641-40.842h18.338l-9.138 43.266a12.698 12.698 0 0 0-.435 2.083 16.757 16.757 0 0 0-.125 2.02c0 1.783.425 3.016 1.274 3.699.849.684 2.165 1.025 3.947 1.025 1.244 0 2.394-.279 3.45-.839s2.021-1.337 2.891-2.331c.87-.995 1.637-2.186 2.3-3.574a28.356 28.356 0 0 0 1.679-4.507h5.347z"/>
  <path d="M295.169 93.141c-3.315 3.854-6.642 7.035-9.977 9.542-3.337 2.508-6.497 4.631-9.48 6.371a20.346 20.346 0 0 1-4.445 3.574 26.849 26.849 0 0 1-5.097 2.362c-1.762.602-3.543 1.036-5.346 1.306s-3.512.404-5.128.404c-3.191 0-5.958-.487-8.299-1.461-2.342-.974-4.279-2.238-5.812-3.792s-2.663-3.295-3.388-5.222c-.725-1.927-1.088-3.863-1.088-5.812 0-1.491.197-2.869.59-4.134.395-1.264.901-2.393 1.523-3.388a11.962 11.962 0 0 1 2.145-2.58c.808-.725 1.647-1.294 2.518-1.709 3.564-6.382 6.568-12.691 9.014-18.929a293.956 293.956 0 0 0 6.651-18.804l18.835-2.486c.249 5.512.487 10.288.715 14.329a765.12 765.12 0 0 0 1.213 18.058c.165 2.073.32 3.907.466 5.502.145 1.596.249 3.046.311 4.352.062 1.305.093 2.663.093 4.071 0 .954-.031 1.824-.093 2.611s-.197 1.533-.404 2.237a70.48 70.48 0 0 0 5.067-3.201 42.946 42.946 0 0 0 4.071-3.201h5.345zm-51.284 4.599c0 2.984.591 5.212 1.772 6.683 1.181 1.472 3.18 2.207 5.999 2.207 1.408 0 2.776-.196 4.103-.591a9.12 9.12 0 0 0 3.543-1.989c1.035-.933 1.865-2.145 2.486-3.637.622-1.491.933-3.356.933-5.595 0-1.077-.031-2.123-.093-3.139a277.206 277.206 0 0 0-.218-3.232c-.083-1.14-.197-2.414-.342-3.823-.146-1.408-.311-3.046-.497-4.911a422.954 422.954 0 0 1-.591-6.465 981.759 981.759 0 0 1-.684-8.579 107.524 107.524 0 0 1-4.538 12.06 238.808 238.808 0 0 1-5.781 11.997 6.848 6.848 0 0 1 2.082 1.741c.56.705.839 1.596.839 2.673 0 .787-.124 1.554-.373 2.3a6.248 6.248 0 0 1-1.119 2.021 5.623 5.623 0 0 1-1.772 1.43c-.684.353-1.46.528-2.331.528a6.255 6.255 0 0 1-1.989-.311c-.621-.207-1.098-.663-1.429-1.368z"/>
  <path d="M359.445 93.141c-1.782 5.222-3.698 9.387-5.75 12.494-2.051 3.108-4.124 5.481-6.216 7.118-2.094 1.638-4.145 2.704-6.154 3.201-2.011.497-3.865.746-5.563.746-2.819 0-5.181-.404-7.087-1.212-1.906-.809-3.44-1.886-4.6-3.232a12.47 12.47 0 0 1-2.518-4.601 18.282 18.282 0 0 1-.777-5.314c0-2.154.3-4.672.901-7.553.601-2.88 1.253-5.833 1.958-8.858.704-3.024 1.357-5.946 1.958-8.765s.901-5.243.901-7.274c0-4.352-1.533-6.527-4.6-6.527a5.979 5.979 0 0 0-3.232.933c-.995.622-1.907 1.461-2.735 2.518-.829 1.057-1.575 2.3-2.238 3.729s-1.243 2.954-1.74 4.57l-8.641 40.841h-18.338l18.462-86.593 18.836-2.549-6.838 32.076c1.367-1.533 2.725-2.766 4.071-3.699 1.347-.932 2.662-1.647 3.947-2.145 1.284-.497 2.496-.829 3.637-.995a22.43 22.43 0 0 1 3.201-.249c2.03 0 3.916.27 5.657.808 1.74.539 3.242 1.389 4.507 2.549 1.264 1.161 2.247 2.652 2.952 4.476.704 1.824 1.057 4 1.057 6.527 0 1.7-.155 3.534-.466 5.501a99.032 99.032 0 0 1-1.15 6.031 202.644 202.644 0 0 1-1.46 6.123c-.52 2.03-1.006 3.978-1.461 5.843a110.78 110.78 0 0 0-1.15 5.19c-.311 1.596-.466 2.995-.466 4.196 0 1.575.362 2.859 1.088 3.854.725.994 2.061 1.491 4.009 1.491 1.368 0 2.569-.269 3.605-.808 1.036-.538 1.968-1.306 2.798-2.3.828-.995 1.585-2.186 2.269-3.575a65.156 65.156 0 0 0 2.021-4.568h5.345z"/>
  <path d="M426.395 93.141c-1.202 3.44-2.508 6.424-3.916 8.951-1.409 2.528-2.87 4.662-4.383 6.402-1.513 1.741-3.057 3.15-4.631 4.228-1.575 1.078-3.108 1.906-4.6 2.486-1.492.581-2.922.974-4.289 1.182-1.368.206-2.611.311-3.73.311-3.605 0-6.476-.984-8.609-2.953-2.135-1.968-3.43-4.88-3.885-8.733a49.714 49.714 0 0 1-3.419 4.258 25.42 25.42 0 0 1-4.165 3.729c-1.534 1.099-3.243 1.989-5.129 2.674-1.886.684-3.969 1.025-6.247 1.025-2.197 0-4.311-.353-6.341-1.057s-3.833-1.865-5.408-3.481-2.839-3.729-3.792-6.341c-.952-2.61-1.43-5.801-1.43-9.573 0-2.899.291-6.008.87-9.324a58.983 58.983 0 0 1 2.674-9.945 56.443 56.443 0 0 1 4.507-9.543c1.803-3.046 3.916-5.739 6.34-8.081a29 29 0 0 1 8.237-5.595c3.066-1.388 6.443-2.083 10.132-2.083 3.605 0 6.227.622 7.864 1.865 1.637 1.244 2.455 2.777 2.455 4.6v.933l1.367-6.776h18.339l-9.139 43.266a12.698 12.698 0 0 0-.435 2.083 16.555 16.555 0 0 0-.125 2.02c0 3.647 1.741 5.471 5.222 5.471 1.243 0 2.394-.32 3.45-.964 1.057-.642 2.021-1.501 2.891-2.579.87-1.077 1.637-2.352 2.3-3.823a33.188 33.188 0 0 0 1.679-4.631h5.346zm-32.076-28.72c0-.373-.084-.839-.249-1.399a5.042 5.042 0 0 0-.839-1.616c-.395-.518-.923-.953-1.586-1.305s-1.513-.529-2.548-.529c-1.783 0-3.472.581-5.066 1.741-1.596 1.161-3.057 2.704-4.383 4.631-1.327 1.927-2.508 4.113-3.543 6.558a62.525 62.525 0 0 0-2.643 7.553 62.363 62.363 0 0 0-1.646 7.646c-.373 2.508-.56 4.756-.56 6.744 0 2.446.227 4.331.684 5.657.455 1.327 1.004 2.311 1.647 2.953.642.643 1.336 1.025 2.082 1.149.746.125 1.408.187 1.989.187.953 0 1.958-.237 3.015-.715 1.057-.476 2.072-1.181 3.046-2.113s1.865-2.103 2.674-3.513c.808-1.408 1.419-3.046 1.833-4.91l6.093-28.719z"/>
  <path d="M416.2 115.954l13.489-63.655h18.338l-1.367 6.589c1.367-1.533 2.725-2.766 4.071-3.699 1.347-.932 2.662-1.647 3.947-2.145 1.284-.497 2.496-.829 3.637-.995a22.43 22.43 0 0 1 3.201-.249c2.03 0 3.916.27 5.657.808 1.74.539 3.242 1.389 4.507 2.549 1.264 1.161 2.247 2.652 2.952 4.476.704 1.824 1.057 4 1.057 6.527 0 1.7-.155 3.534-.466 5.501a99.032 99.032 0 0 1-1.15 6.031 202.644 202.644 0 0 1-1.46 6.123c-.52 2.03-1.006 3.978-1.461 5.843a110.78 110.78 0 0 0-1.15 5.19c-.311 1.596-.466 2.995-.466 4.196 0 1.575.362 2.859 1.088 3.854.725.994 2.061 1.491 4.009 1.491 2.114 0 3.522-.269 4.228-.808-.291 2.321-.87 4.3-1.741 5.937-.87 1.638-1.927 2.994-3.17 4.071a11.805 11.805 0 0 1-4.227 2.362 16.028 16.028 0 0 1-4.849.746c-2.446 0-4.497-.404-6.154-1.212-1.658-.809-2.984-1.886-3.979-3.232-.995-1.347-1.7-2.88-2.113-4.601a22.562 22.562 0 0 1-.622-5.314c0-2.154.3-4.672.901-7.553.601-2.88 1.253-5.833 1.958-8.858.704-3.024 1.357-5.946 1.958-8.765s.901-5.243.901-7.274c0-4.352-1.533-6.527-4.6-6.527a5.979 5.979 0 0 0-3.232.933c-.995.622-1.907 1.461-2.735 2.518-.829 1.057-1.575 2.3-2.238 3.729s-1.243 2.954-1.74 4.57l-8.641 40.841H416.2z"/>
</svg>
