<svg xmlns="http://www.w3.org/2000/svg" viewBox="0 0 566.93 141.73">
  <path d="M91.831 115.77v6.241H36.379V20.504h7.389v95.265h48.063zM103.739 60.749c3.73-3.73 7.651-6.552 11.765-8.465 4.113-1.912 8.775-2.87 13.989-2.87 3.826 0 7.173.61 10.043 1.829 2.87 1.22 5.248 2.966 7.138 5.237 1.889 2.272 3.311 5.021 4.268 8.25.956 3.229 1.435 6.827 1.435 10.797v46.484h-2.726c-1.435 0-2.32-.669-2.654-2.009l-1.004-9.182a74.996 74.996 0 0 1-5.846 5.165 35.036 35.036 0 0 1-6.062 3.873c-2.105 1.053-4.375 1.865-6.815 2.439-2.439.573-5.118.86-8.034.86-2.439 0-4.806-.358-7.102-1.076-2.295-.717-4.34-1.816-6.133-3.3-1.793-1.481-3.228-3.383-4.304-5.702s-1.614-5.104-1.614-8.357c0-3.013.861-5.811 2.583-8.394 1.722-2.582 4.423-4.83 8.106-6.743 3.682-1.912 8.404-3.443 14.168-4.591 5.762-1.147 12.685-1.817 20.768-2.009v-7.46c0-6.6-1.424-11.681-4.269-15.244-2.846-3.562-7.066-5.344-12.661-5.344-3.443 0-6.374.479-8.788 1.435-2.416.957-4.46 2.009-6.134 3.156-1.674 1.148-3.038 2.2-4.089 3.156-1.052.958-1.937 1.435-2.654 1.435-.526 0-.957-.119-1.291-.359a3.211 3.211 0 0 1-.861-.933l-1.222-2.078zm41.966 26.757c-6.792.24-12.638.778-17.54 1.614-4.903.837-8.943 1.973-12.124 3.407-3.181 1.435-5.536 3.146-7.066 5.129-1.531 1.985-2.295 4.245-2.295 6.779 0 2.392.395 4.46 1.184 6.205.789 1.746 1.84 3.181 3.156 4.304 1.315 1.125 2.833 1.949 4.555 2.476s3.515.789 5.38.789c2.773 0 5.32-.299 7.64-.896a28.404 28.404 0 0 0 6.457-2.511c1.984-1.076 3.838-2.355 5.56-3.838s3.418-3.085 5.093-4.807V87.506zM193.911 123.158c-4.831 0-8.597-1.338-11.298-4.017-2.703-2.678-4.053-6.815-4.053-12.41v-48.78h-10.258c-.527 0-.957-.144-1.291-.43-.335-.287-.502-.693-.502-1.22v-2.654l12.195-.861 1.722-25.538a2.6 2.6 0 0 1 .574-1.147c.287-.334.693-.502 1.22-.502h3.228v27.26h22.525v5.093h-22.525v48.421c0 1.962.251 3.647.753 5.058s1.195 2.571 2.08 3.479a8.152 8.152 0 0 0 3.121 2.009c1.195.43 2.486.646 3.874.646 1.722 0 3.204-.251 4.448-.754 1.243-.502 2.319-1.051 3.228-1.649.908-.598 1.65-1.148 2.224-1.65.574-.502 1.028-.753 1.363-.753.382 0 .764.24 1.148.718l1.865 3.013c-1.818 2.009-4.125 3.622-6.922 4.842s-5.706 1.826-8.719 1.826zM251.586 49.486c5.117 0 9.696.873 13.738 2.618 4.041 1.747 7.448 4.221 10.222 7.425 2.773 3.205 4.889 7.066 6.349 11.585 1.458 4.52 2.187 9.577 2.187 15.172 0 5.596-.729 10.642-2.187 15.137-1.459 4.495-3.576 8.346-6.349 11.549-2.774 3.205-6.182 5.668-10.222 7.389-4.042 1.722-8.621 2.583-13.738 2.583-5.118 0-9.696-.861-13.737-2.583-4.042-1.721-7.46-4.184-10.258-7.389-2.797-3.203-4.926-7.054-6.384-11.549-1.459-4.495-2.188-9.541-2.188-15.137 0-5.595.729-10.652 2.188-15.172 1.458-4.52 3.587-8.381 6.384-11.585 2.798-3.204 6.217-5.678 10.258-7.425 4.041-1.745 8.62-2.618 13.737-2.618zm0 68.077c4.256 0 7.974-.729 11.155-2.188 3.18-1.458 5.834-3.551 7.962-6.276 2.127-2.727 3.718-6.014 4.771-9.864 1.051-3.849 1.578-8.165 1.578-12.948 0-4.734-.527-9.038-1.578-12.912-1.052-3.874-2.643-7.185-4.771-9.936-2.128-2.75-4.783-4.866-7.962-6.349-3.181-1.482-6.899-2.224-11.155-2.224-4.257 0-7.975.742-11.155 2.224-3.181 1.483-5.835 3.599-7.962 6.349-2.129 2.75-3.73 6.062-4.807 9.936-1.076 3.874-1.614 8.178-1.614 12.912 0 4.783.538 9.1 1.614 12.948 1.076 3.851 2.678 7.138 4.807 9.864 2.127 2.726 4.781 4.818 7.962 6.276 3.181 1.46 6.899 2.188 11.155 2.188z"/>
</svg>
