<svg xmlns="http://www.w3.org/2000/svg" viewBox="0 0 566.93 141.73">
  <path d="M61.877 24.097c-5.401 2.225-9.59 5.55-12.569 9.978-2.978 4.429-4.467 9.958-4.467 16.589 0 1.548.089 2.81.268 3.783.179.974.367 1.757.566 2.353.198.596.387 1.053.566 1.37.179.318.268.596.268.834-2.105 0-3.972-.208-5.6-.625-1.629-.417-2.988-1.092-4.08-2.025-1.093-.933-1.927-2.153-2.502-3.664-.576-1.508-.864-3.354-.864-5.539 0-2.7.585-5.361 1.757-7.982 1.171-2.621 2.779-5.103 4.825-7.446 2.045-2.342 4.447-4.517 7.208-6.522a51.973 51.973 0 0 1 8.875-5.183 52.864 52.864 0 0 1 9.888-3.395 44.471 44.471 0 0 1 10.275-1.221c.913 0 1.757.03 2.531.089.774.06 1.558.129 2.353.208l-18.764 87.564c2.104.477 4.219 1.202 6.344 2.175 2.124.972 4.279 2.044 6.463 3.216 2.184 1.171 4.397 2.362 6.642 3.574a90.87 90.87 0 0 0 6.85 3.336 48.325 48.325 0 0 0 7.148 2.472c2.442.635 4.953.953 7.535.953 1.668 0 3.345-.14 5.034-.417 1.687-.278 3.425-.795 5.212-1.549-.357 2.938-.904 5.59-1.638 7.953-.735 2.361-1.638 4.378-2.71 6.046-1.072 1.668-2.313 2.948-3.723 3.842a8.454 8.454 0 0 1-4.617 1.34c-2.899 0-5.758-.685-8.578-2.055-2.82-1.37-5.649-3.078-8.488-5.123a160.774 160.774 0 0 1-8.607-6.671 108.75 108.75 0 0 0-8.935-6.672 55.768 55.768 0 0 0-9.501-5.123c-3.276-1.37-6.722-2.055-10.335-2.055h-1.37c-.438 0-.914.039-1.43.119l18.17-84.527z"/>
  <path d="M147.535 59.361c-2.383 2.502-5.46 4.627-9.233 6.374-3.773 1.748-7.903 2.999-12.39 3.753-.477 5.639-1.559 10.722-3.246 15.25-1.688 4.527-3.823 8.38-6.404 11.556-2.582 3.178-5.54 5.62-8.875 7.327a22.948 22.948 0 0 1-10.603 2.562c-2.82 0-5.431-.348-7.833-1.042-2.403-.694-4.468-1.807-6.195-3.336-1.728-1.528-3.078-3.515-4.051-5.957s-1.459-5.41-1.459-8.905c0-2.383.249-5.093.745-8.131.497-3.038 1.29-6.165 2.383-9.382a56.173 56.173 0 0 1 4.229-9.441 36.298 36.298 0 0 1 6.314-8.25c2.481-2.421 5.351-4.378 8.607-5.867 3.256-1.489 6.969-2.234 11.139-2.234 10.444 0 15.666 6.493 15.666 19.479v.119c.198.08.387.119.566.119h.745c1.43 0 2.968-.208 4.617-.625a38.223 38.223 0 0 0 4.974-1.639 42.36 42.36 0 0 0 4.885-2.353 53.317 53.317 0 0 0 4.348-2.711l1.071 3.334zm-31.749 10.484c-1.271-.317-2.135-.943-2.591-1.877-.457-.933-.685-2.015-.685-3.246 0-1.707.347-3.106 1.042-4.199a6.258 6.258 0 0 1 2.77-2.413c-.08-1.311-.219-2.412-.417-3.306-.199-.894-.477-1.628-.834-2.204-.357-.575-.804-.983-1.34-1.221s-1.221-.357-2.055-.357c-1.47 0-2.88.566-4.229 1.698-1.351 1.132-2.631 2.631-3.842 4.497-1.212 1.867-2.323 4.002-3.336 6.404s-1.876 4.875-2.591 7.416a66.79 66.79 0 0 0-1.668 7.536c-.397 2.482-.596 4.735-.596 6.761s.109 3.674.328 4.944c.218 1.271.575 2.273 1.072 3.008.496.735 1.141 1.242 1.936 1.52.794.278 1.767.417 2.919.417 1.469 0 2.948-.655 4.438-1.966s2.869-3.098 4.14-5.361c1.271-2.264 2.392-4.944 3.366-8.042.971-3.099 1.696-6.434 2.173-10.009z"/>
  <path d="M235.1 83.844c-2.859 3.376-5.739 6.186-8.637 8.429-2.899 2.244-5.659 4.199-8.28 5.867-1.072 1.549-2.293 2.851-3.664 3.902a19.654 19.654 0 0 1-4.408 2.562 21.918 21.918 0 0 1-4.854 1.399 30.498 30.498 0 0 1-5.004.417c-3.654 0-6.582-.497-8.786-1.489s-3.922-2.264-5.152-3.812a12.22 12.22 0 0 1-2.442-5.212 28.118 28.118 0 0 1-.596-5.688c0-1.787.258-3.405.774-4.854.516-1.449 1.191-2.671 2.025-3.664.834-.992 1.767-1.757 2.799-2.293 1.032-.536 2.085-.805 3.157-.805 4.249 0 6.374 1.708 6.374 5.123 0 1.51-.556 2.81-1.667 3.901-1.112 1.093-2.502 1.639-4.17 1.639a6.247 6.247 0 0 1-1.936-.298c-.616-.198-1.083-.635-1.4-1.311 0 2.859.585 5.093 1.757 6.701 1.171 1.608 2.949 2.412 5.332 2.412 1.35 0 2.501-.188 3.455-.565.953-.377 1.747-1.002 2.383-1.876.635-.873 1.102-2.035 1.4-3.485.298-1.449.447-3.246.447-5.391 0-1.111-.03-2.184-.089-3.217a60.469 60.469 0 0 0-.298-3.365c-.14-1.211-.289-2.571-.447-4.08a535.243 535.243 0 0 1-.536-5.392 429.93 429.93 0 0 1-.625-7.297 642.23 642.23 0 0 1-.685-9.828c-2.859 4.328-5.897 7.843-9.114 10.543-3.217 2.701-6.612 4.667-10.186 5.897-.199 2.463-.596 5.104-1.191 7.922a50.12 50.12 0 0 1-2.591 8.43c-1.131 2.799-2.561 5.479-4.289 8.041s-3.793 4.835-6.195 6.82c-2.403 1.986-5.183 3.565-8.34 4.736-3.157 1.171-6.722 1.757-10.692 1.757-5.639 0-9.888-1.37-12.747-4.11s-4.289-6.572-4.289-11.496c0-1.151.06-2.313.179-3.485.119-1.171.338-2.332.655-3.484l13.045-61.117 18.049-2.442-5.837 27.461c1.23-.754 2.332-1.36 3.306-1.817.973-.456 1.856-.804 2.651-1.042.794-.238 1.519-.387 2.174-.447s1.281-.089 1.876-.089c1.985 0 3.812.318 5.48.953 1.668.636 3.137 1.678 4.408 3.127 1.27 1.45 2.293 3.335 3.067 5.659s1.26 5.173 1.459 8.548c2.938-.556 5.957-2.481 9.054-5.778 3.098-3.295 6.334-7.803 9.709-13.521l18.049-2.383c.238 5.282.466 9.858.685 13.73a747.36 747.36 0 0 0 1.161 17.304c.158 1.987.307 3.744.447 5.272.139 1.529.238 2.919.298 4.17s.089 2.552.089 3.901c0 1.668-.119 3.178-.357 4.527a40.307 40.307 0 0 0 4.706-3.009 158.804 158.804 0 0 0 3.931-3.008h5.123zm-85.599 2.323c-.238 1.033-.357 1.966-.357 2.8 0 3.773 2.145 5.659 6.434 5.659 1.747 0 3.395-.754 4.944-2.264 1.549-1.509 2.938-3.475 4.17-5.897 1.23-2.422 2.273-5.132 3.127-8.131a57.905 57.905 0 0 0 1.816-8.965c-1.311-.953-1.965-2.581-1.965-4.885 0-1.032.139-1.975.417-2.829.278-.854.655-1.579 1.132-2.175-.438-1.866-1.142-3.415-2.114-4.646-.974-1.23-2.214-1.847-3.723-1.847-.438 0-.993.029-1.668.089-.676.06-1.37.179-2.085.357s-1.38.408-1.995.686c-.616.278-1.102.636-1.459 1.071l-6.674 30.977z"/>
  <path d="M267.683 83.844c-1.152 3.297-2.433 6.156-3.842 8.578-1.41 2.423-2.88 4.467-4.408 6.135-1.529 1.668-3.098 3.019-4.706 4.051-1.608 1.033-3.167 1.827-4.676 2.383-1.51.557-2.949.933-4.319 1.132-1.37.198-2.591.298-3.663.298-1.827 0-3.535-.278-5.123-.834a10.671 10.671 0 0 1-4.14-2.621c-1.172-1.191-2.095-2.7-2.77-4.527-.675-1.826-1.013-4.029-1.013-6.611 0-1.111.08-2.333.238-3.664.159-1.33.397-2.77.715-4.318l7.327-34.251h-4.05l1.013-4.885h3.991l3.693-16.857 18.049-2.442-4.17 19.3h7.327l-.953 4.885h-7.327l-7.804 36.575c-.199.676-.328 1.34-.387 1.995s-.089 1.302-.089 1.937c0 1.708.396 2.889 1.191 3.544.794.655 2.045.983 3.753.983 1.191 0 2.353-.269 3.485-.805 1.131-.536 2.174-1.28 3.127-2.233s1.807-2.095 2.562-3.426c.754-1.33 1.37-2.77 1.847-4.318h5.122z"/>
  <path d="M313.549 83.844a69.57 69.57 0 0 1-5.867 8.34 44.031 44.031 0 0 1-7.445 7.207c-2.76 2.105-5.818 3.804-9.174 5.094s-7.039 1.936-11.049 1.936c-2.899 0-5.52-.368-7.863-1.102-2.344-.734-4.349-1.877-6.016-3.426-1.668-1.549-2.949-3.544-3.842-5.986s-1.34-5.391-1.34-8.846c0-2.343.238-5.043.715-8.102.477-3.058 1.23-6.194 2.264-9.412a53.356 53.356 0 0 1 4.11-9.472 37.27 37.27 0 0 1 6.195-8.31c2.422-2.442 5.261-4.408 8.518-5.897 3.256-1.489 6.969-2.234 11.139-2.234 2.74 0 4.975.328 6.701.983 1.729.655 3.098 1.519 4.109 2.591a8.576 8.576 0 0 1 2.086 3.723c.377 1.41.566 2.87.566 4.378 0 3.535-.775 6.821-2.324 9.859a26.298 26.298 0 0 1-6.225 7.953c-2.602 2.263-5.59 4.09-8.965 5.479a33.14 33.14 0 0 1-10.543 2.442c-.08.914-.149 1.778-.208 2.592-.061.816-.091 1.58-.091 2.295 0 2.065.188 3.763.566 5.093.376 1.331.933 2.374 1.668 3.128.734.755 1.647 1.28 2.739 1.578 1.092.298 2.374.446 3.842.446 2.422 0 4.617-.317 6.582-.952a22.98 22.98 0 0 0 5.51-2.621 30.897 30.897 0 0 0 4.855-3.932 122.149 122.149 0 0 0 4.617-4.825h4.17zm-33.298-8.637c2.303-.159 4.528-.813 6.672-1.966a20.277 20.277 0 0 0 5.658-4.499c1.627-1.847 2.928-3.95 3.902-6.313a19.136 19.136 0 0 0 1.459-7.356c0-1.509-.219-2.72-.656-3.634-.438-.913-1.23-1.37-2.383-1.37-1.549 0-3.066.744-4.557 2.233-1.488 1.489-2.889 3.425-4.199 5.808s-2.472 5.074-3.484 8.071a71.765 71.765 0 0 0-2.412 9.026z"/>
  <path d="M304.734 105.705l12.926-60.998h17.572l-1.549 7.565a108.573 108.573 0 0 1 3.277-2.8 25.361 25.361 0 0 1 3.484-2.413 20.944 20.944 0 0 1 3.781-1.698 13.1 13.1 0 0 1 4.17-.655c1.391 0 2.611.259 3.664.774 1.051.517 1.936 1.191 2.65 2.025s1.252 1.808 1.609 2.918c.357 1.112.535 2.263.535 3.456a9.861 9.861 0 0 1-.535 3.187 8.238 8.238 0 0 1-1.639 2.829c-.736.834-1.658 1.52-2.77 2.056-1.113.536-2.404.804-3.873.804-1.152 0-2.035-.198-2.65-.596-.615-.396-1.082-.894-1.4-1.489s-.545-1.24-.684-1.936a34.092 34.092 0 0 0-.447-1.937c-.16-.596-.367-1.092-.625-1.489-.26-.396-.686-.595-1.281-.595-1.867 0-3.436.427-4.705 1.28-1.271.854-2.662 1.976-4.17 3.365l-9.77 46.344h-17.57z"/>
</svg>
