<svg xmlns="http://www.w3.org/2000/svg" viewBox="0 0 566.93 141.73">
  <path d="M39.001 43.776c.313-1.357.77-2.311 1.371-2.859.6-.548 1.266-.862 1.998-.94.73-.078 1.514 0 2.35.235.834.235 1.684.418 2.545.548.862.131 1.697.157 2.507.079.809-.079 1.579-.457 2.311-1.136L57.41 53.49c-.313-.417-.523-.496-.627-.235-.105.262-.313.548-.626.862a13.194 13.194 0 0 1 2.702 5.718c.443 2.142.835 4.322 1.175 6.541.339 2.22.834 4.4 1.488 6.542.652 2.141 1.841 4.072 3.564 5.796-.679-.94-.979-1.735-.901-2.39a3.484 3.484 0 0 1 .784-1.801 8.334 8.334 0 0 1 1.645-1.527c.652-.471 1.187-.966 1.605-1.489.417-.521.639-1.083.666-1.684.026-.6-.353-1.292-1.136-2.076a87.23 87.23 0 0 0 1.762-4.23 66.73 66.73 0 0 0 1.841-5.444 86.75 86.75 0 0 0 1.567-6.228c.47-2.193.809-4.386 1.018-6.58.784-1.461 1.684-2.507 2.703-3.133 1.019-.627 2.076-.979 3.172-1.058 1.097-.079 2.232.053 3.408.392 1.175.34 2.336.693 3.486 1.058 1.148.366 2.258.693 3.329.979 1.07.288 2.076.379 3.016.274a32.993 32.993 0 0 0-1.919 1.919 14.115 14.115 0 0 1-1.724 1.606c-.601.47-1.267.875-1.998 1.214-.731.34-1.593.588-2.585.744.47.732.666 1.253.588 1.567-.079.313-.313.626-.705.94l-1.371 1.097c-.522.418-.94 1.045-1.253 1.88.313.209.574.431.783.666.208.235.392.431.548.587s.339.262.548.313c.208.052.496 0 .861-.157v2.037c-.366-.365-.601-.666-.705-.901-.105-.235-.34-.169-.705.196l1.41 6.188c-.366 0-.601-.104-.705-.313-.105-.208-.34-.313-.705-.313 1.357 1.515 1.945 3.004 1.762 4.465a18.7 18.7 0 0 1-1.057 4.27 18.645 18.645 0 0 0-1.058 4.152c-.184 1.384.404 2.755 1.762 4.112-.888.366-1.384.796-1.488 1.292-.105.497-.039 1.019.196 1.566.235.549.509 1.111.823 1.685.313.575.47 1.124.47 1.646v1.331h-.705c-.523.366-.744.705-.666 1.019s.287.627.626.94a5.58 5.58 0 0 0 1.175.822c.443.234.744.457.901.666l3.525-2.037c.313.522.548 1.202.705 2.037a6.71 6.71 0 0 1 .039 2.389c-.131.757-.431 1.383-.901 1.88-.47.496-1.124.666-1.958.51-1.202 0-2.585.012-4.151.039a28.002 28.002 0 0 1-4.661-.313c-1.541-.235-2.951-.627-4.23-1.175-1.28-.549-2.181-1.423-2.702-2.625 2.088-.521 3.551-1.292 4.387-2.311.834-1.019 1.41-2.18 1.723-3.485s.496-2.754.548-4.348c.051-1.593.339-3.251.862-4.974h1.41c-1.045-.679-1.633-1.476-1.762-2.39-.131-.913-.079-1.892.157-2.938.235-1.044.548-2.102.94-3.172.392-1.07.574-2.127.548-3.173-.027-1.044-.366-2.023-1.019-2.938-.653-.913-1.894-1.709-3.721-2.389l.705 6.11c-.313-.157-.64-.443-.979-.862a24.68 24.68 0 0 0-1.018-1.175c-.34-.365-.693-.588-1.058-.666-.366-.078-.732.145-1.097.666 0 .732-.053 1.501-.157 2.311-.105.811.183 1.398.862 1.763h2.742c-1.619-.208-2.755-.183-3.408.078-.653.262-1.057.679-1.214 1.253-.157.575-.145 1.253.039 2.037.183.783.313 1.593.392 2.428a6.872 6.872 0 0 1-.196 2.429c-.209.783-.757 1.463-1.645 2.036v2.037h-.783L67.747 94.38c-1.829.47-3.278.521-4.348.156-1.071-.366-1.88-1.019-2.428-1.958-.548-.94-.94-2.088-1.175-3.447a66.155 66.155 0 0 1-.588-4.229 85.875 85.875 0 0 0-.587-4.387c-.235-1.461-.64-2.768-1.214-3.916l-2.664-12.221h-2.037c.521-.887.874-1.645 1.058-2.271.182-.626.261-1.175.235-1.645-.027-.47-.157-.874-.392-1.214a7.892 7.892 0 0 0-.901-1.058h.705c.521-.521.744-.901.666-1.136-.078-.235-.262-.431-.548-.588a10.21 10.21 0 0 1-.94-.587c-.34-.235-.509-.613-.509-1.136h-1.41c-.366 1.359-.47 2.69-.313 3.995.157 1.306.339 2.612.548 3.917.208 1.306.353 2.599.431 3.877.078 1.28-.145 2.599-.666 3.956h1.41c-1.202.888-1.946 2.011-2.233 3.368-.288 1.358-.327 2.781-.117 4.27a24.094 24.094 0 0 0 1.058 4.426c.496 1.463.926 2.689 1.292 3.682a7.874 7.874 0 0 0 1.88 1.37c.73.392 1.396.823 1.998 1.293.6.47 1.018 1.031 1.253 1.684.235.654.091 1.502-.431 2.546-1.045.888-2.05 1.449-3.016 1.685-.967.235-1.946.3-2.938.195a16.317 16.317 0 0 1-2.938-.587 16.268 16.268 0 0 0-2.938-.588 8.833 8.833 0 0 0-2.977.196c-.993.234-1.985.822-2.977 1.763-.157-.366-.484-.862-.979-1.489a7.874 7.874 0 0 1-1.175-2.036 4.246 4.246 0 0 1-.274-2.193c.104-.73.678-1.332 1.724-1.802l.705.705c2.037-1.724 3.55-3.604 4.543-5.64a20.514 20.514 0 0 0 1.919-6.424c.286-2.244.325-4.594.117-7.05a397.36 397.36 0 0 0-.705-7.441 236.788 236.788 0 0 1-.666-7.559 34.742 34.742 0 0 1 .274-7.559l-5.478-3.527zM78.01 55.525H76.6l1.41 2.664v-2.664zM117.411 61.009a10.4 10.4 0 0 1 4.347-3.368c1.749-.731 3.629-1.175 5.64-1.332 2.01-.157 4.034-.079 6.071.235s3.917.732 5.64 1.253c0 .626.182 1.267.548 1.919.365.654.678 1.292.94 1.919.261.626.325 1.228.196 1.801-.131.575-.693 1.124-1.684 1.645-1.202-.678-2.26-.834-3.173-.47-.914.366-1.737.953-2.467 1.762a21.142 21.142 0 0 0-2.037 2.664c-.627.967-1.28 1.684-1.958 2.154a187.86 187.86 0 0 0-3.76 9.166 2119.07 2119.07 0 0 1-3.486 9.125 269.944 269.944 0 0 1-3.721 9.165 116.733 116.733 0 0 1-4.387 9.126c-1.724 2.037-3.826 3.224-6.306 3.564-2.481.339-4.949-.196-7.403-1.606-.626-.312-1.253-.757-1.88-1.331a7.813 7.813 0 0 1-1.566-1.998 7.233 7.233 0 0 1-.823-2.506c-.131-.915-.013-1.894.353-2.938l3.917-4.778c1.461-.105 2.533.129 3.212.705a4.718 4.718 0 0 1 1.449 2.153c.286.862.457 1.775.509 2.742.052.966.222 1.763.509 2.389.287.627.756 1.005 1.41 1.136.652.13 1.71-.195 3.172-.979l-2.037-2.742c1.723-.47 2.859-1.253 3.408-2.35s.809-2.324.783-3.682a23.162 23.162 0 0 0-.47-4.151c-.288-1.41-.431-2.715-.431-3.917-1.306-2.558-2.403-5.013-3.29-7.363a127.084 127.084 0 0 0-2.781-6.776 40.34 40.34 0 0 0-3.408-6.148c-1.306-1.932-3.055-3.733-5.248-5.405 0-.991.261-1.709.783-2.154a6.088 6.088 0 0 1 1.841-1.058 109.23 109.23 0 0 1 2.193-.783 3.639 3.639 0 0 0 1.841-1.41c1.357.366 2.703.587 4.034.666 1.332.078 2.585.223 3.76.431 1.175.209 2.258.562 3.251 1.058.994.496 1.829 1.319 2.509 2.467zm0 .783c0 .836-.223 1.541-.666 2.115a5.746 5.746 0 0 1-1.566 1.41c-.601.366-1.202.587-1.802.666-.601.079-1.084.039-1.449-.117 0 1.358.051 2.769.157 4.23.104 1.462.521 2.716 1.253 3.76.521.156 1.044.457 1.566.9.521.445 1.058.85 1.606 1.215s1.109.588 1.684.666c.574.078 1.175-.144 1.802-.666.157-1.201.535-2.559 1.136-4.074.6-1.514.991-2.977 1.175-4.387.183-1.41-.039-2.636-.666-3.682-.627-1.043-2.037-1.723-4.23-2.036zM152.661 41.504c1.357 0 2.767-.012 4.23-.039a26.941 26.941 0 0 1 4.347.274c1.436.209 2.807.601 4.113 1.175 1.305.575 2.479 1.437 3.525 2.585a29.798 29.798 0 0 0-3.917 2.35c-1.253.889-2.299 1.919-3.133 3.094-.836 1.175-1.384 2.545-1.645 4.112-.262 1.566-.053 3.368.626 5.405.678.993.913 2.128.705 3.408-.209 1.28-.444 2.598-.705 3.956a13.749 13.749 0 0 0-.196 3.995c.13 1.306.874 2.455 2.232 3.447-1.358.836-2.089 1.684-2.193 2.545-.105.862.065 1.737.509 2.625.443.889.952 1.801 1.527 2.742.574.939.862 1.906.862 2.897.991 1.045 2.037 1.763 3.133 2.154s2.206.575 3.329.548a12.508 12.508 0 0 0 3.447-.587 35.083 35.083 0 0 0 3.564-1.332c1.567-1.147 2.689-2.389 3.368-3.721.678-1.331 1.097-2.741 1.253-4.229s.143-3.042-.039-4.661a245.689 245.689 0 0 1-.509-4.935 54.385 54.385 0 0 1-.235-5.091c0-1.724.286-3.42.862-5.092l-1.958-1.488c1.461-.835 2.127-1.631 1.998-2.389-.131-.756-.536-1.488-1.214-2.193a126.806 126.806 0 0 1-1.958-2.076c-.627-.678-.68-1.383-.157-2.115-.523.366-1.136.587-1.841.666-.705.078-1.345.013-1.919-.196a2.967 2.967 0 0 1-1.41-1.058c-.366-.496-.47-1.162-.313-1.998.313-.73.666-1.527 1.058-2.389a8.958 8.958 0 0 1 1.605-2.389c1.514.366 3.212.523 5.092.47a86.014 86.014 0 0 1 5.757.039c1.958.078 3.864.34 5.718.783 1.853.444 3.538 1.345 5.053 2.703-2.82 1.045-4.923 2.402-6.306 4.073a14.073 14.073 0 0 0-2.859 5.679c-.522 2.115-.758 4.4-.705 6.854.051 2.455.143 4.962.274 7.52a95.34 95.34 0 0 1 .078 7.716 24.15 24.15 0 0 1-1.371 7.402c-.993 2.089-2.115 3.877-3.369 5.365a165.741 165.741 0 0 0-3.838 4.739c-.732-.68-1.476-.914-2.233-.705-.757.208-1.541.549-2.35 1.019-.811.47-1.633.913-2.468 1.331-.836.418-1.672.549-2.506.393-1.672-.157-3.369-.562-5.092-1.215a20.952 20.952 0 0 1-4.778-2.546 18.62 18.62 0 0 1-3.877-3.721 14.524 14.524 0 0 1-2.467-4.66 54.777 54.777 0 0 1-.274-9.479c.183-3.133.287-6.201.313-9.204.025-3.002-.17-5.94-.587-8.812-.419-2.872-1.384-5.666-2.898-8.382-.522.523-.993.783-1.41.783-.418 0-.81-.156-1.175-.47a7.331 7.331 0 0 1-1.058-1.136 7.524 7.524 0 0 0-1.058-1.136c-.157-1.514-.013-2.493.431-2.938.443-.443 1.044-.705 1.801-.784.757-.078 1.606-.169 2.546-.274.941-.101 1.829-.571 2.665-1.407zM206.552 54.585c1.566 1.149 3.407 1.776 5.522 1.88 2.115.105 4.295.04 6.541-.196 2.245-.235 4.465-.482 6.658-.744 2.193-.261 4.203-.182 6.031.235 1.828.418 3.369 1.358 4.622 2.82 1.253 1.462 2.062 3.76 2.428 6.893.365 2.037.548 4.166.548 6.384 0 2.22.143 4.4.431 6.541.287 2.143.901 4.191 1.841 6.149s2.507 3.695 4.7 5.209c-.366 1.358-.94 2.351-1.724 2.977-.783.627-1.711 1.044-2.781 1.254-1.071.208-2.259.247-3.564.117a228.119 228.119 0 0 1-3.956-.431 41.03 41.03 0 0 0-3.956-.274c-1.306-.025-2.534.117-3.682.431-.679-1.461-.889-2.649-.627-3.563a4.458 4.458 0 0 1 1.488-2.272c.731-.6 1.579-1.136 2.546-1.605a12.892 12.892 0 0 0 2.546-1.605 4.458 4.458 0 0 0 1.488-2.232c.261-.888.051-2.062-.626-3.525-.157-1.566-.209-3.251-.157-5.053a52.945 52.945 0 0 0-.118-5.366 20.533 20.533 0 0 0-1.018-5.091c-.548-1.618-1.476-3.028-2.781-4.23-1.724-.313-3.369-.261-4.935.157a16.177 16.177 0 0 0-4.465 1.958 20.199 20.199 0 0 0-3.838 3.133 34.59 34.59 0 0 0-2.977 3.525c.313 1.359.431 2.794.353 4.309-.079 1.516-.17 3.016-.274 4.504a62.333 62.333 0 0 0-.157 4.387c0 1.438.248 2.769.744 3.995.496 1.228 1.318 2.285 2.468 3.173 1.148.888 2.82 1.566 5.013 2.036h1.253c.208.889.039 1.566-.509 2.037-.548.47-1.345.797-2.389.979-1.045.184-2.246.274-3.604.274s-2.755-.013-4.19-.039a43.941 43.941 0 0 0-4.152.117c-1.332.104-2.442.313-3.329.627-1.045-.313-1.815-.783-2.311-1.41a34.354 34.354 0 0 0-1.684-1.958c.835-.991 1.802-1.867 2.898-2.624s2.154-1.54 3.172-2.351a14.214 14.214 0 0 0 2.624-2.702c.731-.992 1.175-2.244 1.332-3.76-.889-1.514-1.398-3.355-1.528-5.523a111.674 111.674 0 0 1-.196-6.736c0-2.323-.078-4.608-.235-6.854-.152-2.248-.649-4.233-1.484-5.957zM276.894 42.835c.992 1.149 1.514 2.417 1.567 3.799a23.995 23.995 0 0 1-.235 4.269 50.187 50.187 0 0 0-.431 4.269c-.078 1.384.3 2.651 1.136 3.799-.679 2.769-.9 5.653-.666 8.656.235 3.003.691 6.228 1.371 9.675-.783.574-1.267 1.084-1.449 1.527-.184.443-.196.875-.039 1.292.157.419.404.822.744 1.214.339.393.639.797.901 1.215.261.418.417.861.47 1.331.051.47-.157.993-.627 1.566l8.852 6.032c-1.358 1.724-2.69 2.754-3.995 3.094a7.821 7.821 0 0 1-3.956 0 17.333 17.333 0 0 1-3.956-1.566 22.167 22.167 0 0 0-3.995-1.685 9.171 9.171 0 0 0-4.112-.312c-1.384.209-2.808 1.045-4.27 2.506-1.358 0-2.741-.234-4.151-.705a16.738 16.738 0 0 1-3.956-1.919 18.924 18.924 0 0 1-3.329-2.78c-.993-1.044-1.75-2.167-2.271-3.368-.626-2.193-1.11-4.583-1.449-7.168a32.799 32.799 0 0 1-.117-7.677c.26-2.532.887-4.921 1.88-7.167.991-2.245 2.506-4.152 4.543-5.719.157-.834.561-1.226 1.214-1.175.652.053 1.305.157 1.958.313.652.157 1.226.184 1.723.078.496-.104.666-.73.509-1.88.678.313 1.645.679 2.898 1.097 1.253.418 2.572.732 3.956.94 1.383.209 2.742.235 4.073.078 1.332-.156 2.415-.626 3.251-1.41a109.582 109.582 0 0 1-.901-3.172c-.288-1.07-.431-2.311-.431-3.721-.47-.574-1.124-.926-1.958-1.057a17.33 17.33 0 0 0-2.664-.196c-.94 0-1.841.013-2.702.039-.862.027-1.567-.091-2.115-.353-.548-.261-.861-.717-.94-1.371-.078-.652.247-1.657.979-3.016l12.69.628zm-18.173 19.584c-1.359.679-2.311 1.554-2.859 2.624a11.897 11.897 0 0 0-1.136 3.408 40.929 40.929 0 0 0-.47 3.76 10.95 10.95 0 0 1-.94 3.682A101.916 101.916 0 0 0 255 80.004a17.605 17.605 0 0 0 2.233 3.8 12.024 12.024 0 0 0 3.133 2.859c1.201.758 2.663 1.214 4.386 1.37.835-.156 1.528-.534 2.076-1.136.548-.6 1.044-1.253 1.488-1.958.443-.705.848-1.396 1.214-2.076.365-.678.809-1.175 1.332-1.488l.705 1.332c.678-1.201 1.097-2.323 1.253-3.368.157-1.044.235-2.049.235-3.017v-2.858c0-.94.182-1.932.548-2.977.313-2.193-.092-4.073-1.214-5.64-1.124-1.566-2.52-2.728-4.191-3.486a10.703 10.703 0 0 0-5.248-.94c-1.827.131-3.238.797-4.229 1.998zM326.479 67.119c.783 1.776 1.083 3.173.9 4.191-.184 1.019-.692 1.763-1.527 2.232-.836.47-1.894.744-3.172.823-1.28.078-2.599.104-3.956.078-1.358-.026-2.663-.052-3.917-.078-1.253-.026-2.271.065-3.055.273-1.358.156-2.769.092-4.23-.195s-2.938-.51-4.426-.666-2.989-.13-4.504.078c-1.515.209-3.029.889-4.543 2.037.312 1.723.939 3.133 1.88 4.229s2.037 2.036 3.29 2.819a43.55 43.55 0 0 0 3.956 2.194 29.916 29.916 0 0 1 3.877 2.271c.835-.835 1.71-1.227 2.624-1.175.913.052 1.763.117 2.546.195s1.436-.025 1.959-.313c.521-.286.783-1.187.783-2.702 1.2.313 2.102.195 2.702-.353.6-.548 1.175-1.161 1.724-1.841.548-.678 1.227-1.227 2.036-1.645s2.049-.287 3.721.391L321.7 90.854c-.627 0-1.371.053-2.232.157s-1.75.301-2.663.587c-.915.288-1.815.693-2.703 1.214a8.673 8.673 0 0 0-2.35 2.037 33.146 33.146 0 0 1-4.935-.9 31.06 31.06 0 0 1-5.092-1.802 28.705 28.705 0 0 1-4.817-2.781 20.091 20.091 0 0 1-4.113-3.917c-1.672-3.812-2.768-7.585-3.289-11.319-.523-3.732-.105-7.637 1.253-11.71 2.036-2.401 4.151-4.309 6.345-5.718 2.193-1.41 4.778-2.637 7.755-3.682 2.872-.521 5.392-.3 7.56.666a20.796 20.796 0 0 1 5.796 3.838 34.863 34.863 0 0 1 4.505 5.131c1.303 1.827 2.556 3.316 3.759 4.464zm-20.994-8.852c-4.543.679-7.912 3.396-10.104 8.147 1.566.522 3.263.81 5.091.861 1.828.053 3.708.039 5.641-.039 1.931-.078 3.89-.157 5.875-.235a47.298 47.298 0 0 1 5.796.117c0-1.514-.444-2.859-1.331-4.034a11.17 11.17 0 0 0-3.251-2.898 14.648 14.648 0 0 0-4.034-1.645c-1.411-.339-2.639-.431-3.683-.274zM332.979 57.954c0-1.461.353-2.625 1.058-3.486.705-.862 1.618-1.461 2.742-1.802 1.122-.339 2.375-.457 3.76-.353 1.383.105 2.754.379 4.112.822a16.595 16.595 0 0 1 3.76 1.763c1.148.732 2.062 1.541 2.742 2.428 4.073-3.028 7.885-4.438 11.437-4.23 3.551.209 7.18 1.829 10.888 4.857.679.888 1.058 1.762 1.136 2.624.079.862.079 1.762 0 2.703-.078.94-.144 1.919-.195 2.937-.053 1.019.104 2.103.47 3.251-1.045.209-2.063.405-3.055.587-.993.184-1.958.262-2.898.235a6.004 6.004 0 0 1-2.624-.666c-.811-.417-1.555-1.148-2.232-2.193l-2.742-5.327c-2.402.313-4.621 1.253-6.658 2.82-2.036 1.567-3.421 3.552-4.151 5.954.156 1.045.156 2.246 0 3.604a53.577 53.577 0 0 0-.313 4.309 19.458 19.458 0 0 0 .392 4.582c.313 1.541.991 2.99 2.037 4.348.678 0 1.553.026 2.624.078 1.069.053 2.127.195 3.172.431s1.971.64 2.781 1.214c.809.575 1.293 1.358 1.449 2.351-.47 1.201-1.188 1.919-2.154 2.154-.967.234-1.997.325-3.094.273a69.003 69.003 0 0 0-3.329-.078c-1.124 0-2.104.339-2.938 1.019-1.358-.522-2.82-.797-4.387-.822-1.566-.027-3.173-.04-4.817-.04a45.11 45.11 0 0 1-4.936-.273 11.297 11.297 0 0 1-4.66-1.606c-.523-.47-.666-.991-.432-1.566.235-.574.627-1.108 1.176-1.605a13.577 13.577 0 0 1 1.802-1.371c.652-.417 1.136-.705 1.449-.861.834.679 1.436.928 1.801.744.365-.183.692-.482.979-.901a5 5 0 0 1 1.097-1.136c.443-.339 1.188-.353 2.232-.039a28.594 28.594 0 0 0 1.332-6.109c.208-2.037.286-4.061.234-6.071a93.841 93.841 0 0 0-.353-6.032c-.184-2.01-.353-4.007-.509-5.992a2.797 2.797 0 0 0-1.685-.823 8.883 8.883 0 0 0-2.036 0c-.705.079-1.424.17-2.154.274-.731.105-1.397.105-1.997 0a2.767 2.767 0 0 1-1.528-.784c-.42-.42-.681-1.151-.785-2.196zM417.029 67.824c.104-.678.078-1.5-.078-2.467-.157-.966-.313-1.945-.471-2.938a15.38 15.38 0 0 1-.195-2.859c.025-.913.274-1.684.744-2.311s1.227-1.044 2.271-1.253c1.044-.208 2.532-.078 4.465.392 0 .732.274 1.306.822 1.723.549.419 1.136.967 1.763 1.645 0 .784-.209 1.737-.627 2.859a42.279 42.279 0 0 1-1.488 3.486 87.76 87.76 0 0 1-1.762 3.486c-.602 1.124-1.058 2.103-1.371 2.937.313 1.41.392 2.73.235 3.956-.157 1.228-.432 2.468-.823 3.721s-.81 2.573-1.253 3.956c-.444 1.384-.744 2.938-.901 4.661.365.626.418 1.24.157 1.841a8.342 8.342 0 0 1-1.097 1.801 82.84 82.84 0 0 1-1.449 1.802c-.497.601-.822 1.24-.979 1.92-.992.364-1.775.378-2.35.039a4.172 4.172 0 0 1-1.41-1.371 20.811 20.811 0 0 1-1.058-1.88c-.34-.678-.771-1.201-1.292-1.566.521-1.88.666-3.486.431-4.817a13.05 13.05 0 0 0-1.214-3.683 27.074 27.074 0 0 0-1.998-3.289c-.758-1.07-1.397-2.284-1.919-3.643h-2.037c-.575.992-1.045 2.168-1.409 3.525a301.504 301.504 0 0 0-1.097 4.189 135.776 135.776 0 0 1-1.136 4.191c-.393 1.358-.901 2.533-1.528 3.525-.626.992-1.384 1.762-2.271 2.311-.889.548-2.011.691-3.368.431a30.003 30.003 0 0 1-2.82-8.264c-.522-2.847-1.045-5.652-1.566-8.421a66.585 66.585 0 0 0-2.075-8.147c-.862-2.663-2.312-5.17-4.348-7.52h-1.41l.705-4.7c.574-.365 1.122-.457 1.645-.274a5.283 5.283 0 0 1 1.488.823c.471.366.901.757 1.293 1.175.392.419.744.679 1.058.784.313.105.587-.013.822-.353.235-.339.404-1.058.509-2.154 1.044.679 2.206.967 3.486.862a48.8 48.8 0 0 1 3.956-.157c-.68.993-1.268 2.142-1.763 3.446a19.44 19.44 0 0 0-1.058 4.034 18.4 18.4 0 0 0-.157 4.152c.104 1.384.418 2.65.94 3.799l2.037 2.037c1.253-.313 2.205-1.148 2.858-2.507.652-1.357 1.175-2.872 1.567-4.543.392-1.67.77-3.329 1.136-4.974.364-1.645.861-2.963 1.488-3.956.626-.992 1.488-1.475 2.585-1.449 1.097.027 2.61.875 4.543 2.546.991 1.202 1.514 2.52 1.566 3.956a59.53 59.53 0 0 1 0 4.309 15.114 15.114 0 0 0 .392 4.112c.313 1.306 1.227 2.377 2.742 3.212v3.994c1.147-.104 1.997-.403 2.546-.9a3.614 3.614 0 0 0 1.097-1.802c.182-.704.247-1.488.195-2.35a89.592 89.592 0 0 0-.195-2.585c-.079-.862-.118-1.685-.118-2.468s.183-1.462.549-2.037zM464.106 63.359c.364 1.88.835 3.578 1.41 5.092a54.463 54.463 0 0 1 1.488 4.504c.417 1.488.666 3.029.744 4.621.078 1.594-.196 3.408-.822 5.444a95.822 95.822 0 0 0-2.664 3.799 37.794 37.794 0 0 1-2.858 3.76 19.317 19.317 0 0 1-3.33 3.056c-1.201.861-2.559 1.37-4.073 1.527-2.193.364-4.491.482-6.893.353a23.963 23.963 0 0 1-6.933-1.41 18.216 18.216 0 0 1-5.992-3.604c-1.776-1.592-3.082-3.643-3.917-6.149-.156-1.147-.209-2.453-.156-3.916.051-1.461.117-2.963.195-4.504.078-1.54.13-3.042.156-4.504.026-1.461-.039-2.793-.195-3.995.156-2.037.822-3.76 1.997-5.17a16.03 16.03 0 0 1 4.23-3.564 26.976 26.976 0 0 1 5.365-2.389 533.76 533.76 0 0 1 5.405-1.724c1.514-.313 3.028-.221 4.543.274a18.866 18.866 0 0 1 4.387 2.115 35.11 35.11 0 0 1 4.113 3.133 152.375 152.375 0 0 0 3.8 3.251zm-13.551-1.254c-.68.47-1.645.705-2.898.705-1.253 0-2.494.066-3.721.196-1.228.131-2.26.483-3.094 1.058-.836.575-1.176 1.697-1.019 3.368l-2.037-.626c0 1.358-.209 2.716-.626 4.073a13.75 13.75 0 0 0-.627 4.073c-.156 1.829-.014 3.368.431 4.622a9.565 9.565 0 0 0 1.998 3.328 20.153 20.153 0 0 0 3.133 2.742c1.201.861 2.479 1.789 3.838 2.781.679.156 1.567.223 2.664.195 1.097-.025 2.258-.235 3.485-.627 1.227-.392 2.429-.979 3.604-1.762 1.175-.784 2.154-1.854 2.938-3.212 1.357-2.401 2.036-5 2.036-7.794 0-2.793-.679-5.392-2.036-7.794-.783.157-1.424-.026-1.919-.548a15.924 15.924 0 0 1-1.488-1.841 11.707 11.707 0 0 0-1.802-1.998c-.706-.625-1.659-.939-2.86-.939zM505.23 63.359c.364 1.88.835 3.578 1.41 5.092a54.463 54.463 0 0 1 1.488 4.504c.417 1.488.666 3.029.744 4.621.078 1.594-.196 3.408-.822 5.444a95.822 95.822 0 0 0-2.664 3.799 37.794 37.794 0 0 1-2.858 3.76 19.317 19.317 0 0 1-3.33 3.056c-1.201.861-2.559 1.37-4.073 1.527-2.193.364-4.491.482-6.893.353a23.963 23.963 0 0 1-6.933-1.41 18.216 18.216 0 0 1-5.992-3.604c-1.776-1.592-3.082-3.643-3.917-6.149-.156-1.147-.209-2.453-.156-3.916.051-1.461.117-2.963.195-4.504.078-1.54.13-3.042.156-4.504.026-1.461-.039-2.793-.195-3.995.156-2.037.822-3.76 1.997-5.17a16.03 16.03 0 0 1 4.23-3.564 26.976 26.976 0 0 1 5.365-2.389 533.76 533.76 0 0 1 5.405-1.724c1.514-.313 3.028-.221 4.543.274a18.866 18.866 0 0 1 4.387 2.115 35.11 35.11 0 0 1 4.113 3.133 152.375 152.375 0 0 0 3.8 3.251zm-13.551-1.254c-.68.47-1.645.705-2.898.705-1.253 0-2.494.066-3.721.196-1.228.131-2.26.483-3.094 1.058-.836.575-1.176 1.697-1.019 3.368l-2.037-.626c0 1.358-.209 2.716-.626 4.073a13.75 13.75 0 0 0-.627 4.073c-.156 1.829-.014 3.368.431 4.622a9.565 9.565 0 0 0 1.998 3.328 20.153 20.153 0 0 0 3.133 2.742c1.201.861 2.479 1.789 3.838 2.781.679.156 1.567.223 2.664.195 1.097-.025 2.258-.235 3.485-.627 1.227-.392 2.429-.979 3.604-1.762 1.175-.784 2.154-1.854 2.938-3.212 1.357-2.401 2.036-5 2.036-7.794 0-2.793-.679-5.392-2.036-7.794-.783.157-1.424-.026-1.919-.548a15.924 15.924 0 0 1-1.488-1.841 11.707 11.707 0 0 0-1.802-1.998c-.706-.625-1.659-.939-2.86-.939zM539.854 42.835c.991 1.149 1.515 2.417 1.566 3.799a23.899 23.899 0 0 1-.234 4.269 49.782 49.782 0 0 0-.431 4.269c-.079 1.384.3 2.651 1.136 3.799-.68 2.769-.901 5.653-.666 8.656.235 3.003.691 6.228 1.371 9.675-.783.574-1.268 1.084-1.449 1.527-.184.443-.196.875-.039 1.292.156.419.403.822.744 1.214.339.393.639.797.9 1.215.261.418.417.861.47 1.331.052.47-.156.993-.626 1.566l8.852 6.032c-1.359 1.724-2.69 2.754-3.995 3.094a7.821 7.821 0 0 1-3.956 0 17.333 17.333 0 0 1-3.956-1.566 22.167 22.167 0 0 0-3.995-1.685c-1.358-.417-2.729-.521-4.112-.312s-2.808 1.045-4.269 2.506c-1.358 0-2.742-.234-4.152-.705a16.731 16.731 0 0 1-3.955-1.919 18.888 18.888 0 0 1-3.329-2.78c-.993-1.044-1.751-2.167-2.271-3.368-.627-2.193-1.11-4.583-1.449-7.168a32.745 32.745 0 0 1-.118-7.677 23.617 23.617 0 0 1 1.88-7.167c.992-2.245 2.507-4.152 4.544-5.719.156-.834.561-1.226 1.214-1.175.652.053 1.305.157 1.958.313.652.157 1.227.184 1.724.078.496-.104.666-.73.509-1.88.679.313 1.646.679 2.898 1.097 1.254.418 2.571.732 3.956.94 1.383.209 2.741.235 4.073.078 1.332-.156 2.415-.626 3.251-1.41a112.864 112.864 0 0 1-.901-3.172c-.287-1.07-.431-2.311-.431-3.721-.47-.574-1.123-.926-1.958-1.057a17.335 17.335 0 0 0-2.663-.196c-.94 0-1.841.013-2.703.039-.861.027-1.566-.091-2.114-.353-.549-.261-.862-.717-.94-1.371-.078-.652.247-1.657.979-3.016l12.687.628zm-18.173 19.584c-1.358.679-2.311 1.554-2.859 2.624a11.897 11.897 0 0 0-1.136 3.408 40.929 40.929 0 0 0-.47 3.76 10.975 10.975 0 0 1-.94 3.682 100.51 100.51 0 0 0 1.685 4.111 17.642 17.642 0 0 0 2.232 3.8 12.04 12.04 0 0 0 3.133 2.859c1.201.758 2.664 1.214 4.387 1.37.835-.156 1.527-.534 2.076-1.136.548-.6 1.044-1.253 1.488-1.958.443-.705.848-1.396 1.214-2.076.365-.678.81-1.175 1.332-1.488l.705 1.332c.678-1.201 1.097-2.323 1.253-3.368.157-1.044.235-2.049.235-3.017v-2.858c0-.94.183-1.932.548-2.977.313-2.193-.092-4.073-1.214-5.64-1.124-1.566-2.521-2.728-4.19-3.486a10.705 10.705 0 0 0-5.249-.94c-1.829.131-3.239.797-4.23 1.998z"/>
</svg>
