<svg xmlns="http://www.w3.org/2000/svg" viewBox="0 0 566.93 141.73">
  <path d="M37.023 19.789c1.114 0 2.228.779 2.228 2.228 0 8.798 4.232 12.919 13.031 12.919 9.912 0 22.943-9.689 30.627-15.146a93.845 93.845 0 0 1 5.569-4.01c.334-.223.78-.334 1.225-.334.668 0 1.336.223 1.782.891.445.668.557 1.336.334 2.005L85.36 38.054c8.13-10.469 15.481-18.265 25.393-18.265 10.135 0 13.587 5.568 13.587 14.033.111 7.016-2.116 15.035-8.019 32.521-4.901 14.59-13.922 38.424-14.033 43.547 0 6.794 2.339 9.912 7.573 10.136 1.225 0 2.228 1.002 2.228 2.115a2.234 2.234 0 0 1-2.228 2.228c-8.019 0-12.028-5.457-12.028-14.479.111-5.902 7.017-23.5 14.256-44.995 5.792-17.263 7.908-25.059 7.908-31.073-.111-5.792-2.45-9.579-9.244-9.579-10.803 0-21.272 14.924-30.071 28.066-12.808 39.204-14.479 49.784-24.614 49.784-3.898 0-5.68-2.673-5.68-6.794 0-8.13 11.583-22.943 14.813-27.621l11.471-17.375 8.799-26.952c-9.244 6.571-22.164 15.926-33.189 15.926-10.692 0-18.377-6.905-17.375-17.375.112-1.445 1.114-2.113 2.116-2.113zm31.742 50.564c-3.23 4.343-13.811 18.487-14.033 25.059 0 1.448.445 2.228 1.448 2.228 5.123 0 7.128-5.234 15.036-30.628-.558.89-1.114 1.558-2.451 3.341zM147.176 77.703c0 .334-.111.668-.223 1.002-5.346 12.028-11.137 23.389-20.493 23.389-5.346 0-8.242-4.232-8.019-9.355.334-8.688 8.242-29.068 13.143-41.765a2.235 2.235 0 0 1 2.116-1.559c1.448 0 2.896 1.114 2.228 3.007-10.803 30.405-12.808 35.528-12.808 40.317 0 3.229 1.002 4.678 3.341 4.678 6.905 0 12.028-11.472 16.149-20.604.445-.891 1.336-1.447 2.228-1.447.334 0 .557.111.891.223.89.332 1.447 1.223 1.447 2.114zm-12.697-37.756c0-2.116 1.782-3.787 3.898-3.787a3.756 3.756 0 0 1 3.787 3.787 3.755 3.755 0 0 1-3.787 3.787c-2.115 0-3.898-1.671-3.898-3.787z"/>
  <path d="M182.481 77.814c0 .334-.111.557-.223.891-6.794 15.147-14.812 23.389-27.732 23.389-8.13 0-13.477-6.126-13.477-15.258 0-17.375 13.922-37.422 25.282-37.422 6.348 0 9.467 4.343 9.467 10.469 0 5.012-2.451 10.135-5.012 10.135-1.448 0-2.339-.779-2.339-2.227 0-1.559 2.673-3.453 2.673-7.908 0-3.898-1.448-5.791-4.789-5.791-8.688 0-20.604 19.49-20.604 32.855 0 6.236 3.564 10.469 8.91 10.469 10.803 0 17.708-7.796 23.277-20.604a2.527 2.527 0 0 1 3.119-1.225c.892.445 1.448 1.336 1.448 2.227z"/>
  <path d="M171.344 101.982c-1.225-.445-1.894-1.782-1.448-3.007 18.6-51.789 22.943-64.152 23.834-66.713.334-.891 1.225-1.448 2.116-1.448 1.782 0 2.896 1.67 2.339 3.119-9.689 27.287-16.372 46.332-23.834 66.49-.445 1.114-1.782 1.893-3.007 1.559zm55.13-24.279c0 .334-.111.668-.223 1.002-5.346 11.917-11.249 23.389-20.493 23.389-5.123 0-8.242-4.232-8.242-8.465 0-2.45.334-4.9.668-7.462.334-2.228.668-4.566.557-6.57-.111-2.896-1.114-5.013-4.9-5.013-3.23 0-4.9 3.342-7.017 3.342-2.45 0-3.007-2.45-1.336-4.121 1.448-1.448 11.694-10.469 26.507-24.057.668-.557 1.002-.557 1.56-.557 1.67 0 2.45 1.448 2.45 2.339 0 .668-.334 1.225-.78 1.671l-18.6 16.929c5.235.891 6.683 4.678 6.794 9.467 0 2.562-1.225 11.137-1.225 13.698 0 2.005 1.225 4.121 3.564 4.121 6.571 0 11.917-11.026 16.149-20.604.445-.891 1.225-1.447 2.116-1.447.334 0 .668.111 1.002.223.892.333 1.449 1.224 1.449 2.115z"/>
  <path d="M298.311 72.245c-4.343 11.806-12.028 32.521-12.028 38.313 0 7.017 2.228 10.135 7.463 10.135 1.225 0 2.339 1.113 2.339 2.45 0 1.225-1.114 2.339-2.339 2.339-8.354-.223-12.251-5.681-12.251-14.924 0-6.794 8.019-27.955 12.474-39.872l.445-1.226h-23.611c-8.91 15.37-20.159 32.633-33.858 32.633-9.244 0-16.929-6.015-16.929-15.258 0-9.802 8.242-18.377 17.151-18.377 1.671 0 3.453.334 5.124 1.113.891.445 1.336 1.226 1.336 2.116 0 1.226-1.002 2.339-2.339 2.339-.557 0-2.45-.891-4.121-.891-6.459 0-12.474 6.794-12.474 13.699 0 6.348 5.569 10.469 12.251 10.469 11.249 0 20.827-15.146 28.4-27.844h-5.457c-1.337 0-2.451-1.113-2.451-2.338a2.473 2.473 0 0 1 2.451-2.451h8.242c2.784-4.9 5.457-9.912 8.13-14.701 5.235-9.689 9.912-18.488 13.922-23.723 3.229-3.898 7.573-6.571 11.472-6.571 6.683 0 8.91 4.232 8.91 10.357 0 8.353-4.232 20.047-7.351 28.846-2.451 6.908-4.344 12.031-4.901 13.367zm7.685-41.653c0-3.675-1.114-6.125-4.344-6.125-2.562 0-5.792 2.228-7.685 4.678-3.787 4.9-8.465 13.587-13.588 23.054-2.228 4.009-4.566 8.353-6.905 12.474h22.609l2.673-7.462c2.562-7.129 7.24-19.38 7.24-26.619zM332.173 77.703c0 .334-.111.668-.223 1.002-5.346 12.028-11.137 23.389-20.492 23.389-5.347 0-8.242-4.232-8.02-9.355.334-8.688 8.242-29.068 13.143-41.765a2.235 2.235 0 0 1 2.116-1.559c1.447 0 2.896 1.114 2.228 3.007-10.804 30.405-12.809 35.528-12.809 40.317 0 3.229 1.003 4.678 3.342 4.678 6.905 0 12.028-11.472 16.148-20.604.446-.891 1.337-1.447 2.228-1.447.334 0 .558.111.892.223.89.332 1.447 1.223 1.447 2.114zm-12.696-37.756c0-2.116 1.782-3.787 3.898-3.787s3.786 1.671 3.786 3.787c0 2.116-1.67 3.787-3.786 3.787s-3.898-1.671-3.898-3.787z"/>
  <path d="M376.61 77.703c0 .334-.111.668-.223 1.002-7.573 16.817-12.808 23.389-20.381 23.389-5.347 0-8.02-3.898-8.02-9.355 0-10.469 8.688-23.389 8.688-33.078 0-3.229-1.448-5.792-5.791-5.792-6.794 0-15.259 15.036-18.822 24.502l-7.797 22.052c-.445 1.337-1.781 1.894-3.007 1.56-1.225-.445-1.894-1.671-1.447-3.007 5.791-16.038 12.808-36.197 17.151-48.114.334-1.002 1.225-1.559 2.228-1.559 1.67 0 2.784 1.67 2.228 3.118l-.892 2.228c3.23-3.341 6.683-5.458 10.358-5.458 8.019 0 10.469 4.566 10.469 10.469 0 9.912-8.688 24.502-8.688 33.078 0 3.229 1.003 4.678 3.342 4.678 5.234 0 9.244-5.902 16.038-20.604.445-.891 1.225-1.447 2.115-1.447.335 0 .669.111 1.003.223.892.444 1.448 1.224 1.448 2.115z"/>
  <path d="M399.554 77.703c0 .334-.111.668-.223 1.002-6.459 13.922-12.696 23.389-22.942 23.389-5.347 0-8.242-4.01-8.242-9.355 0-3.229 1.114-7.239 3.898-16.038 3.007-8.798 6.348-18.154 9.578-27.397l5.791-16.929c.445-1.225 1.782-1.782 3.008-1.448 1.225.445 1.893 1.782 1.447 3.007l-5.791 16.929c-3.119 8.91-6.349 17.82-9.578 27.287-2.45 7.573-3.676 12.585-3.676 14.59 0 3.007 1.337 4.678 3.564 4.678 8.019 0 13.364-9.244 18.599-20.716.446-.779 1.337-1.336 2.228-1.336.335 0 .669.111 1.003.223.779.443 1.336 1.223 1.336 2.114z"/>
  <path d="M434.86 77.814c0 .334-.111.557-.224.891-7.239 16.038-15.703 23.389-26.952 23.389-9.244 0-14.812-6.126-14.59-15.258.668-14.256 12.251-37.422 25.394-37.422 5.568 0 9.467 2.896 9.467 8.242 0 11.805-16.595 18.933-28.958 21.941-.779 2.896-1.113 5.012-1.225 7.351-.223 6.348 3.341 10.246 10.023 10.469 9.133.223 16.261-6.237 22.498-20.604a2.525 2.525 0 0 1 3.118-1.225c.892.444 1.449 1.335 1.449 2.226zm-11.583-20.158c0-3.007-2.339-3.564-4.789-3.564-7.686 0-14.145 11.583-17.709 20.158 9.244-2.896 22.498-8.353 22.498-16.594z"/>
  <path d="M480.746 77.814c0 .334-.111.668-.223 1.002-6.905 16.261-16.149 26.618-32.41 31.407-5.346 15.259-12.251 23.166-20.27 23.277-6.683.111-11.026-4.232-11.026-10.803 0-7.017 5.457-12.14 18.822-14.59 2.784-.446 5.791-1.003 8.799-1.782l2.784-8.02c-2.562 2.45-5.346 3.787-8.465 3.787-9.467 0-12.14-6.349-12.14-11.917.223-5.123 2.784-11.249 7.128-22.609l6.237-16.929c.334-.891 1.225-1.448 2.116-1.448 1.894 0 2.784 1.671 2.228 3.119L438.2 69.237c-4.9 13.477-6.794 16.929-6.794 20.938 0 3.229 1.003 7.239 7.351 7.239 5.903 0 13.031-11.806 17.486-24.613 1.447-4.344.779-2.339 8.241-22.052.334-.891 1.226-1.56 2.116-1.56 1.337 0 2.896 1.56 2.339 3.23-1.782 4.566-4.789 12.251-8.353 21.94l-8.91 25.394-1.671 4.9c12.808-4.344 20.604-14.59 26.173-27.732.445-.891 1.226-1.447 2.116-1.447.334 0 .668.111 1.002.223.893.447 1.45 1.226 1.45 2.117zm-38.09 33.747c-2.116.445-4.121.891-6.126 1.225-10.246 1.782-14.59 4.678-15.035 9.802 0 3.897 2.562 6.348 6.349 6.236 6.013-.112 11.136-6.014 14.812-17.263z"/>
</svg>
