<svg xmlns="http://www.w3.org/2000/svg" viewBox="0 0 566.93 141.73">
  <path d="M86.439 25.025c0 2.499-.899 4.646-2.698 6.445s-4.047 2.698-6.745 2.698a7.564 7.564 0 0 1-3.147-.675c-1-.449-2.3-1.223-3.897-2.323-.501-.397-1.3-.799-2.398-1.199 0 3.598.349 6.521 1.049 8.769.698 2.249 2.099 5.872 4.197 10.867 4.295 10.192 7.693 19.537 10.192 28.029 2.497 8.495 3.748 16.289 3.748 23.384 0 7.396-.625 13.241-1.874 17.537-1.25 4.295-3.623 7.518-7.12 9.668-3.499 2.147-8.645 3.223-15.438 3.223-4.598 0-8.596-1.199-11.992-3.598-3.398-2.398-5.096-5.396-5.096-8.993 0-2.398.848-4.546 2.548-6.445 1.698-1.897 3.897-2.849 6.595-2.849 2.497 0 4.595.802 6.295 2.398.398-2.398.6-4.745.6-7.045 0-2.896-.55-5.644-1.649-8.244-2.398-6.693-5.897-14.438-10.492-23.232l-2.249-4.497c-1.101-1.896-2.349-4.895-3.747-8.993-.401-1.199-1.101-2.998-2.099-5.396-1.7-3.896-2.998-7.318-3.897-10.268-.899-2.946-1.349-5.869-1.349-8.769 0-2.496.6-5.22 1.798-8.169 1.199-2.946 2.822-5.419 4.872-7.419 2.047-1.998 4.272-2.998 6.67-2.998 1.098 0 2.248.251 3.447.749 1.398-1.997 3.246-3.62 5.546-4.871 2.298-1.248 4.595-1.874 6.895-1.874 1.398 0 3.321.276 5.771.825 2.447.55 4.321 1.124 5.621 1.724 2.796 1.3 5.171 2.923 7.12 4.871 1.948 1.948 2.923 4.174 2.923 6.67zM132.003 91.276c.398 2.099 1.098 3.897 2.099 5.396.798 1.199 2.548 2.45 5.246 3.748 2.597 1.499 4.796 2.349 6.595 2.548l4.347.3c.3-.3.848-.648 1.649-1.049l.899-.75c1.398-.998 3.047-1.499 4.946-1.499 3.396 0 6.045 1.35 7.944 4.047.998 1.401 1.499 3.05 1.499 4.946 0 3.298-1.349 5.897-4.047 7.795l-1.049.749-2.249 1.499c-2.199 1.4-4.796 2.248-7.794 2.548-.6.099-1.551.15-2.848.15-.899 0-2.649-.101-5.246-.3-.3-.101-.75-.15-1.349-.15-1.4.799-2.949 1.199-4.646 1.199h-2.548c-1.3 0-3.349-.101-6.146-.3-2.6-.101-5.646-.85-9.143-2.248-3.698-1.298-7.146-3.497-10.343-6.595-3.297-3.097-5.497-6.495-6.595-10.193-.801-2.896-1.199-5.644-1.199-8.243l.15-7.944c0-3.598-.052-5.846-.15-6.745-.202-2.398.398-6.544 1.798-12.441 1.398-5.794 2.748-10.092 4.047-12.891 1.199-2.496 2.297-4.546 3.297-6.146a25.588 25.588 0 0 1 3.148-4.196c1.798-2.099 3.846-3.598 6.146-4.497 1.499-.698 3.396-1.049 5.696-1.049.6-.398 1.049-.649 1.349-.75 1.998-.899 3.597-1.398 4.796-1.499l5.696-.6c.3-.199.899-.199 1.799 0 .899.202 1.398.251 1.499.15h.15l1.199.3c.698.3 1.099.4 1.199.3l1.199.449 1.199.6 1.049.6c.499.4.848.6 1.049.6 3.796 2 6.844 4.747 9.144 8.244a24.667 24.667 0 0 1 4.497 10.343c.6 2.799.899 5.846.899 9.143 0 4.197-.15 6.895-.45 8.094-.101 1.6-.6 3.248-1.499 4.946-1.101 2.3-2.649 3.848-4.646 4.646-1.899.899-3.799 1.349-5.696 1.349h-11.991l-6.745-.149h-.6c.099 2.098.35 3.948.75 5.545zm6.596-23.832h5.846c0-2.398-.15-4.396-.45-5.995-.3-1.099-.85-2.347-1.649-3.747-.6-.799-1.499-1.598-2.698-2.398l-1.649-.75-2.548.3-.75.899c-1.101 1.6-1.948 3.998-2.548 7.195-.202.899-.4 2.349-.6 4.347h1.049l5.997.149zM248.617 85.131c0 8.394-.201 17.387-.6 26.98-.101 2.499-1.101 4.571-2.998 6.22-1.899 1.649-3.949 2.474-6.146 2.474-2.899 0-5.223-.975-6.97-2.923-1.75-1.948-2.524-4.271-2.323-6.97.398-7.495.6-15.388.6-23.683 0-7.593-.276-13.015-.824-16.263-.551-3.246-1.675-5.471-3.373-6.67-4.998 2.998-10.544 8.445-16.638 16.337.3 4.398.6 7.896.899 10.492.199 3.998.3 6.197.3 6.596l-.3 12.74-1.649 8.395c-2.098 3.196-4.796 4.796-8.094 4.796-2.899 0-5.422-.85-7.569-2.548-2.15-1.698-3.574-3.946-4.272-6.745.098.201-.651-2.548-2.249-8.244-1.799-6.394-2.998-12.415-3.597-18.062-.6-5.645-.899-12.015-.899-19.111 0-6.794.049-12.09.15-15.889.199-4.396 1.098-8.117 2.698-11.166 1.598-3.048 3.846-4.97 6.745-5.771 1.199-.199 2.047-.3 2.548-.3 1.199 0 2.248.202 3.147.6.998-.199 2.148-.3 3.448-.3 2.497 0 4.696.899 6.595 2.698 1.798 1.799 2.698 3.949 2.698 6.445 0 2-.55 3.698-1.648 5.097 4.895-5.195 10.44-8.893 16.638-11.092 7.293 0 12.539 1.175 15.738 3.522 3.197 2.349 5.221 5.822 6.071 10.417.848 4.598 1.424 12.092 1.724 22.483.098 1.8.15 4.948.15 9.445zM283.691 120.355c-2.998.4-5.198.599-6.596.599-7.495 0-11.242-2.946-11.242-8.843 0-2.197.773-4.221 2.324-6.071 1.548-1.848 3.571-2.923 6.07-3.223l1.499-.149c.199-.799.3-1.349.3-1.648 0-1.298-.426-3.272-1.274-5.921-.85-2.646-1.824-5.42-2.923-8.319-2.6-7.094-4.623-13.19-6.07-18.286-1.45-5.097-2.173-10.092-2.173-14.989 0-2.398.848-4.846 2.548-7.345 1.698-2.497 3.872-4.595 6.521-6.295 2.646-1.698 5.27-2.549 7.869-2.549 1.199 0 2.297.15 3.297.45 3.197-.199 6.346-.3 9.443-.3 2.498 0 4.646.899 6.445 2.698 1.799 1.798 2.699 3.948 2.699 6.444 0 2.499-.9 4.673-2.699 6.521-1.799 1.851-3.947 2.773-6.445 2.773-4.098 0-6.496.051-7.193.149-.102.201-.15.45-.15.75 0 2.6.398 4.871 1.199 6.819.799 1.949 2.047 4.272 3.746 6.971 2.598 4.397 4.621 8.718 6.07 12.964 1.449 4.249 2.174 9.968 2.174 17.163 0 5.597-1.25 10.094-3.746 13.49-2.501 3.399-6.398 5.449-11.693 6.147zM347.693 91.276c.398 2.099 1.099 3.897 2.099 5.396.799 1.199 2.548 2.45 5.246 3.748 2.598 1.499 4.796 2.349 6.595 2.548l4.347.3c.3-.3.849-.648 1.649-1.049l.899-.75c1.398-.998 3.047-1.499 4.946-1.499 3.396 0 6.045 1.35 7.944 4.047.997 1.401 1.499 3.05 1.499 4.946 0 3.298-1.35 5.897-4.048 7.795l-1.049.749-2.248 1.499c-2.199 1.4-4.797 2.248-7.795 2.548-.6.099-1.55.15-2.848.15-.899 0-2.648-.101-5.246-.3-.3-.101-.749-.15-1.349-.15-1.401.799-2.949 1.199-4.647 1.199h-2.548c-1.3 0-3.349-.101-6.146-.3-2.6-.101-5.646-.85-9.144-2.248-3.697-1.298-7.146-3.497-10.342-6.595-3.298-3.097-5.497-6.495-6.596-10.193-.801-2.896-1.199-5.644-1.199-8.243l.15-7.944c0-3.598-.052-5.846-.15-6.745-.201-2.398.398-6.544 1.799-12.441 1.398-5.794 2.747-10.092 4.047-12.891 1.199-2.496 2.298-4.546 3.298-6.146a25.582 25.582 0 0 1 3.147-4.196c1.799-2.099 3.846-3.598 6.146-4.497 1.499-.698 3.396-1.049 5.696-1.049.6-.398 1.049-.649 1.349-.75 1.998-.899 3.598-1.398 4.797-1.499l5.695-.6c.3-.199.899-.199 1.799 0 .899.202 1.398.251 1.499.15h.15l1.199.3c.697.3 1.098.4 1.198.3l1.199.449 1.199.6 1.05.6c.499.4.848.6 1.049.6 3.797 2 6.844 4.747 9.144 8.244a24.655 24.655 0 0 1 4.497 10.343c.599 2.799.898 5.846.898 9.143 0 4.197-.149 6.895-.449 8.094-.101 1.6-.6 3.248-1.499 4.946-1.101 2.3-2.648 3.848-4.646 4.646-1.899.899-3.799 1.349-5.696 1.349h-11.991l-6.745-.149h-.599c.1 2.098.351 3.948.751 5.545zm6.595-23.832h5.846c0-2.398-.149-4.396-.449-5.995-.3-1.099-.851-2.347-1.648-3.747-.6-.799-1.499-1.598-2.698-2.398l-1.649-.75-2.548.3-.749.899c-1.101 1.6-1.949 3.998-2.549 7.195-.201.899-.4 2.349-.6 4.347h1.05l5.994.149zM423.536 110.013c0 7.194-4.147 10.792-12.441 10.792-3.499 0-6.295-.772-8.394-2.323-2.099-1.548-3.147-4.37-3.147-8.469l.149-11.392c.199-8.993.3-15.688.3-20.086 0-5.295-.149-12.74-.449-22.333l-.15-3.598c-1.199-1.698-1.799-3.497-1.799-5.396 0-2.496.899-4.67 2.698-6.52 1.799-1.849 3.946-2.773 6.445-2.773h7.345c.799 0 1.948-.023 3.447-.075 1.499-.049 2.572.15 3.223.6.649.45 1.174 1.725 1.574 3.822.3 2.099.449 3.998.449 5.696 0 1.101-.051 1.851-.149 2.248.3.801.449 2.398.449 4.797l.45 55.01zm-8.844-99.078c-1.4-.997-3.099-1.499-5.097-1.499-2.997 0-5.546 1.301-7.644 3.897-2.099 2.6-3.148 5.448-3.148 8.544 0 3.199 1.447 5.946 4.347 8.244 2.897 2.3 5.944 3.447 9.144 3.447 2.897 0 5.494-1.173 7.795-3.522 2.297-2.347 3.447-5.221 3.447-8.618 0-2.698-.851-5.021-2.548-6.971-1.701-1.948-3.799-3.122-6.296-3.522z"/>
</svg>
