<svg xmlns="http://www.w3.org/2000/svg" viewBox="0 0 566.93 141.73">
  <path d="M105.507 58.378H83.21l-2.384-8.704H64.252l-3.1 2.388v4.898l2.623 2.031 28.736 4.779 13.95 10.871v23.894l-17.05 14.096h-35.89l-16.932-14.07V83.417h22.297l2.385 8.704h17.408l2.981-2.504v-5.604l-2.266-2.027-28.616-4.77-14.189-11.684V42.758l16.216-13.593h36.486l16.216 13.515v15.698zM195.171 69.467l-17.289 14.428h-27.543v8.346l9.062 2.385v18.005h-42.805V94.506l9.062-2.385V49.793l-9.062-2.385V29.165h61.287l17.289 14.547v25.755zm-44.833-19.793v13.712h17.051l3.1-2.67v-8.494l-3.1-2.548h-17.051zM264.922 105.178a1509.475 1509.475 0 0 1-9.062 7.452h-34.101l-18.004-14.904V43.712l17.408-14.547h35.413l17.409 14.547v54.014a1399.005 1399.005 0 0 0-9.063 7.452zm-33.385-55.504l-3.22 2.511v37.186l3.339 2.75h14.427l3.339-2.75V52.185l-3.22-2.511h-14.665zM284.475 112.63V94.506l9.062-2.385V49.793l-9.062-2.385V29.165h62.004l16.096 13.593v24.92L350.77 77.694l9.062 14.427 6.32 1.192v19.316h-22.656l-19.076-32.55h-6.201v12.042l9.062 2.385v18.124h-42.806zm33.744-49.244h16.932l2.861-2.405V52.08l-2.861-2.405h-16.932v13.711zM436.855 63.624l-2.385-15.143h-9.182v43.64l10.255 2.504v18.005h-45.071V94.625l10.135-2.39V48.481h-9.181l-2.385 15.143h-17.646V29.165h82.987v34.459h-17.527zM531.766 58.378h-22.297l-2.385-8.704H490.51l-3.1 2.388v4.898l2.623 2.031 28.735 4.779 13.951 10.871v23.894l-17.051 14.096h-35.89l-16.932-14.069V83.417h22.297l2.385 8.704h17.408l2.98-2.504v-5.604l-2.265-2.027-28.617-4.77-14.188-11.685V42.758l16.216-13.593h36.486l16.216 13.515v15.698z"/>
</svg>
