<svg xmlns="http://www.w3.org/2000/svg" viewBox="0 0 566.93 141.73">
  <path d="M60.781 114.989V41.378H32.749v-9.867h67.164v9.867H71.881v73.611h-11.1zM129.738 108.317c-.86.637-2.01 1.523-3.448 2.663-1.439 1.141-2.832 2.047-4.177 2.72-1.87.972-3.672 1.719-5.41 2.242-1.738.522-4.177.785-7.316.785-2.579 0-5.027-.486-7.344-1.458a18.862 18.862 0 0 1-6.111-4.093c-1.682-1.719-3.027-3.84-4.037-6.363-1.009-2.522-1.514-5.186-1.514-7.988 0-4.336.916-8.026 2.747-11.073 1.831-3.045 4.728-5.466 8.69-7.26 3.513-1.606 7.662-2.719 12.446-3.336 4.784-.616 9.942-1.073 15.474-1.373v-2.019c0-2.467-.374-4.457-1.121-5.971-.748-1.514-1.794-2.681-3.14-3.504-1.346-.859-2.991-1.43-4.934-1.71a42.041 42.041 0 0 0-5.999-.42c-2.43 0-5.29.364-8.578 1.093-3.29.729-6.579 1.785-9.867 3.167h-.617V53.712c1.943-.561 4.728-1.177 8.353-1.85a58.87 58.87 0 0 1 10.764-1.009c4.298 0 7.923.336 10.876 1.009 2.952.673 5.606 1.888 7.961 3.644 2.279 1.72 3.98 3.944 5.102 6.671 1.122 2.729 1.682 6.055 1.682 9.979v42.832h-10.484v-6.671zm0-8.745v-17.38c-2.504.225-5.672.532-9.503.925-3.832.393-6.923.944-9.278 1.654-2.803.86-5.121 2.178-6.952 3.952-1.832 1.775-2.747 4.252-2.747 7.429 0 3.588 1.009 6.298 3.027 8.129 2.018 1.832 4.97 2.747 8.858 2.747 3.326 0 6.335-.719 9.026-2.158a39.045 39.045 0 0 0 7.569-5.298zM204.246 114.989h-10.54V79.333c0-2.877-.14-5.559-.42-8.045-.28-2.485-.813-4.476-1.598-5.971-.86-1.57-2.056-2.737-3.588-3.504-1.533-.766-3.625-1.149-6.279-1.149-2.617 0-5.317.701-8.101 2.103-2.785 1.401-5.504 3.224-8.157 5.466v46.757h-10.54V27.755h10.54v31.563c3.139-2.803 6.241-4.952 9.306-6.447a21.843 21.843 0 0 1 9.699-2.243c6.167 0 10.988 2.028 14.464 6.083 3.476 4.056 5.213 9.933 5.213 17.632v40.646zM270.568 83.706c0 10.54-2.542 18.679-7.625 24.415-5.083 5.738-11.849 8.606-20.295 8.606-8.709 0-15.558-2.962-20.547-8.887-4.99-5.923-7.484-13.968-7.484-24.135 0-10.465 2.569-18.594 7.708-24.387 5.139-5.793 11.914-8.69 20.323-8.69 8.446 0 15.211 2.887 20.295 8.662 5.083 5.775 7.625 13.914 7.625 24.416zm-10.876 0c0-8.109-1.477-14.137-4.429-18.08-2.953-3.943-7.158-5.915-12.614-5.915-5.494 0-9.727 1.972-12.698 5.915s-4.457 9.971-4.457 18.08c0 7.849 1.486 13.801 4.457 17.856s7.204 6.082 12.698 6.082c5.419 0 9.615-1.99 12.586-5.971 2.972-3.98 4.457-9.968 4.457-17.967zM352.477 114.989V78.772c0-2.878-.111-5.54-.336-7.989-.225-2.447-.693-4.363-1.402-5.746-.748-1.495-1.812-2.597-3.195-3.308-1.383-.709-3.252-1.065-5.605-1.065-2.168 0-4.496.664-6.98 1.99-2.486 1.327-5.055 3.243-7.709 5.747.037.636.084 1.393.141 2.271s.084 1.915.084 3.111v41.206h-10.539V78.772c0-2.878-.113-5.54-.338-7.989-.225-2.447-.691-4.363-1.4-5.746-.748-1.495-1.814-2.597-3.195-3.308-1.385-.709-3.252-1.065-5.607-1.065-2.279 0-4.672.71-7.176 2.13-2.504 1.421-4.934 3.233-7.289 5.438v46.757h-10.539V52.367h10.539v6.952c2.766-2.766 5.504-4.906 8.215-6.419 2.709-1.514 5.689-2.271 8.941-2.271 3.699 0 6.98.841 9.84 2.523 2.857 1.682 5.035 4.448 6.531 8.297 3.176-3.55 6.277-6.242 9.305-8.073 3.029-1.831 6.316-2.747 9.867-2.747 2.691 0 5.139.42 7.346 1.261 2.205.841 4.129 2.196 5.773 4.065 1.682 1.906 2.98 4.28 3.896 7.12.916 2.841 1.373 6.411 1.373 10.708v41.206h-10.541zM412.8 108.317c-.859.637-2.009 1.523-3.447 2.663-1.439 1.141-2.831 2.047-4.177 2.72-1.869.972-3.672 1.719-5.41 2.242-1.738.522-4.177.785-7.316.785-2.579 0-5.027-.486-7.344-1.458a18.862 18.862 0 0 1-6.111-4.093c-1.682-1.719-3.027-3.84-4.036-6.363-1.01-2.522-1.514-5.186-1.514-7.988 0-4.336.915-8.026 2.747-11.073 1.83-3.045 4.728-5.466 8.689-7.26 3.513-1.606 7.661-2.719 12.446-3.336 4.783-.616 9.941-1.073 15.473-1.373v-2.019c0-2.467-.374-4.457-1.121-5.971-.748-1.514-1.794-2.681-3.14-3.504-1.345-.859-2.99-1.43-4.934-1.71s-3.943-.42-5.998-.42c-2.431 0-5.289.364-8.578 1.093-3.289.729-6.578 1.785-9.867 3.167h-.616V53.712c1.942-.561 4.728-1.177 8.354-1.85a58.87 58.87 0 0 1 10.764-1.009c4.298 0 7.924.336 10.876 1.009s5.606 1.888 7.961 3.644c2.279 1.72 3.98 3.944 5.103 6.671 1.121 2.729 1.682 6.055 1.682 9.979v42.832H412.8v-6.671zm0-8.745v-17.38a775.73 775.73 0 0 0-9.502.925c-3.832.393-6.924.944-9.278 1.654-2.804.86-5.121 2.178-6.952 3.952-1.832 1.775-2.747 4.252-2.747 7.429 0 3.588 1.009 6.298 3.027 8.129 2.019 1.832 4.971 2.747 8.858 2.747 3.325 0 6.335-.719 9.025-2.158a39.075 39.075 0 0 0 7.569-5.298z"/>
</svg>
