<svg xmlns="http://www.w3.org/2000/svg" viewBox="0 0 566.93 141.73">
  <path d="M88.989 41.491H67.45v57.408H56.9V41.491H35.449V30.942h53.54v10.549zM135.583 60.305l-33.056 60.134-9.231-5.1 9.231-16.791-19.78-38.331 9.407-4.835 16.528 32.001 17.671-32.089 9.23 5.011zM186.66 61.712c2.167 2.228 3.838 4.733 5.011 7.517 1.172 2.784 1.758 5.729 1.758 8.835 0 3.107-.586 6.053-1.758 8.836-1.173 2.784-2.843 5.29-5.011 7.517-2.228 2.228-4.734 3.912-7.517 5.055-2.785 1.143-5.73 1.715-8.835 1.715-2.813 0-5.495-.47-8.044-1.407a22.372 22.372 0 0 1-6.901-4.044v23.121h-10.55V56.7h10.55v3.693a22.414 22.414 0 0 1 6.901-4.045c2.55-.937 5.231-1.406 8.044-1.406 3.105 0 6.051.571 8.835 1.714 2.783 1.144 5.289 2.829 7.517 5.056zm-16.352 28.924c1.758 0 3.398-.321 4.923-.968a12.463 12.463 0 0 0 4-2.681 12.479 12.479 0 0 0 2.681-4c.644-1.523.967-3.165.967-4.924 0-1.758-.323-3.398-.967-4.923a12.511 12.511 0 0 0-2.681-4 12.498 12.498 0 0 0-4-2.682c-1.524-.645-3.165-.967-4.923-.967s-3.4.322-4.923.967a12.476 12.476 0 0 0-4 2.682 12.482 12.482 0 0 0-2.682 4c-.646 1.524-.967 3.165-.967 4.923 0 1.759.321 3.4.967 4.924a12.44 12.44 0 0 0 6.682 6.681c1.523.646 3.165.968 4.923.968zM225.781 100.834c-3.107 0-6.052-.572-8.835-1.715-2.784-1.143-5.261-2.827-7.429-5.055-2.228-2.168-3.912-4.645-5.055-7.429-1.143-2.783-1.714-5.729-1.714-8.836 0-3.105.571-6.051 1.714-8.835 1.143-2.783 2.827-5.26 5.055-7.429 2.168-2.227 4.645-3.912 7.429-5.056 2.783-1.143 5.729-1.714 8.835-1.714 3.106 0 6.051.571 8.835 1.714 2.783 1.144 5.26 2.829 7.429 5.056 2.227 2.169 3.912 4.646 5.055 7.429 1.143 2.784 1.714 5.729 1.714 8.835 0 3.107-.572 6.053-1.714 8.836-1.143 2.784-2.829 5.261-5.055 7.429-2.169 2.228-4.646 3.912-7.429 5.055-2.784 1.143-5.729 1.715-8.835 1.715zm0-35.518c-1.701 0-3.312.322-4.835.967a12.487 12.487 0 0 0-4 2.682 12.463 12.463 0 0 0-2.681 4 12.26 12.26 0 0 0-.967 4.835c0 1.701.322 3.312.967 4.836a12.479 12.479 0 0 0 2.681 4 12.452 12.452 0 0 0 4 2.681c1.523.646 3.135.968 4.835.968 1.699 0 3.311-.321 4.835-.968a12.463 12.463 0 0 0 4-2.681 12.479 12.479 0 0 0 2.681-4c.645-1.523.967-3.135.967-4.836 0-1.699-.323-3.311-.967-4.835-.646-1.523-1.538-2.857-2.681-4s-2.477-2.036-4-2.682a12.3 12.3 0 0 0-4.835-.967zM306.925 56.7v37.54c0 .527-.03 1.041-.088 1.538-.06.499-.118.953-.177 1.363-.059.059-.088.176-.088.352v.088a28.87 28.87 0 0 1-.396 1.846 39.047 39.047 0 0 0-.396 1.759l-.088.176-.088.176c0 .176-.03.321-.088.439a5.557 5.557 0 0 1-.352 1.055v.088c-1.23 3.75-3.283 6.915-6.154 9.495l-.176.176-.088.088c-.118.116-.25.248-.396.396a5.443 5.443 0 0 1-.571.483c-.47.293-.923.601-1.362.923-.439.321-.924.63-1.451.924-.762.468-1.788.995-3.077 1.582-3.164 1.23-6.711 1.963-10.636 2.198h-3.824c-.734 0-1.51-.06-2.33-.176h-.176l-1.847-.353c-1.817-.294-3.429-.762-4.835-1.406-1.406-.646-2.608-1.261-3.604-1.846l-.088-.088-.176-.088c-.118-.118-.22-.206-.308-.265s-.191-.118-.308-.176l5.978-8.703a.722.722 0 0 0 .176.132.695.695 0 0 1 .177.132h.088c.937.527 1.771.952 2.505 1.274a8.943 8.943 0 0 0 2.242.66l1.318.264a103.3 103.3 0 0 0 2.374.132c.703.028 1.376.014 2.021-.044a46.786 46.786 0 0 0 3.912-.483 14.214 14.214 0 0 0 3.385-1.012c.293-.118.601-.25.924-.396.321-.146.629-.308.923-.483a33.906 33.906 0 0 0 1.494-1.055c.117-.118.233-.22.352-.308.117-.088.234-.191.352-.308 1.465-1.407 2.55-3.107 3.253-5.1 0-.118.014-.19.044-.22.029-.03.044-.103.044-.22l.264-.791c.117-.469.221-.923.309-1.362.088-.44.16-.864.22-1.275.058-.058.088-.204.088-.439.058-.117.088-.264.088-.439s.028-.321.088-.439c-2.169 1.993-4.572 3.517-7.209 4.571-2.638 1.055-5.451 1.582-8.44 1.582-3.048 0-5.949-.571-8.703-1.714-2.756-1.143-5.217-2.798-7.385-4.967-2.169-2.168-3.824-4.63-4.967-7.385-1.144-2.755-1.715-5.655-1.715-8.704 0-3.105.571-6.035 1.715-8.791 1.143-2.754 2.798-5.216 4.967-7.385 2.168-2.168 4.629-3.824 7.385-4.967 2.754-1.144 5.655-1.715 8.703-1.715 2.989 0 5.816.527 8.484 1.582a22.334 22.334 0 0 1 7.165 4.572V56.7h10.549zm-26.199 33.408c1.699 0 3.296-.322 4.792-.968a12.434 12.434 0 0 0 3.912-2.637 12.653 12.653 0 0 0 2.638-3.868c.644-1.465.967-3.047.967-4.748 0-1.699-.323-3.297-.967-4.791a12.487 12.487 0 0 0-2.638-3.912 12.504 12.504 0 0 0-3.912-2.638c-1.495-.645-3.092-.967-4.792-.967-1.7 0-3.282.322-4.747.967a12.594 12.594 0 0 0-3.868 2.638 12.453 12.453 0 0 0-2.638 3.912c-.646 1.494-.967 3.092-.967 4.791 0 1.701.321 3.283.967 4.748a12.565 12.565 0 0 0 2.638 3.868 12.556 12.556 0 0 0 3.868 2.637c1.465.646 3.047.968 4.747.968zM343.672 54.767c1.991 0 4.088.323 6.285.967 2.198.646 4.058 1.466 5.583 2.462l-5.803 8.791c-.586-.409-1.494-.791-2.726-1.143-1.23-.352-2.345-.527-3.34-.527-1.935 0-3.591.206-4.968.615-1.378.411-2.521.923-3.429 1.538-.909.616-1.626 1.29-2.153 2.022a19.902 19.902 0 0 0-1.319 2.066c-.47.997-.821 2.008-1.055 3.032a30.17 30.17 0 0 0-.527 2.901 27.784 27.784 0 0 0-.22 2.55c-.03.791-.044 1.393-.044 1.802v17.056H319.318V55.821h10.55v2.638c0-.058.028-.088.088-.088 3.81-2.402 8.382-3.604 13.716-3.604zM410.223 56.7v42.199h-10.55v-5.715c-.118.118-.25.265-.396.44a6.716 6.716 0 0 1-.396.439c-2.229 2.169-4.719 3.824-7.473 4.967-2.756 1.143-5.686 1.715-8.792 1.715-3.048 0-5.964-.572-8.747-1.715a22.484 22.484 0 0 1-7.429-4.967 22.513 22.513 0 0 1-4.968-7.429 22.805 22.805 0 0 1-1.714-8.748c0-3.105.571-6.035 1.714-8.791 1.144-2.754 2.799-5.245 4.968-7.473a22.518 22.518 0 0 1 7.429-4.968 22.804 22.804 0 0 1 8.747-1.714c3.106 0 6.036.571 8.792 1.714 2.754 1.144 5.244 2.8 7.473 4.968.176.234.439.527.791.879V56.7h10.551zm-27.606 33.496a12.27 12.27 0 0 0 4.836-.968c1.522-.644 2.842-1.523 3.956-2.637a12.49 12.49 0 0 0 2.637-3.912c.645-1.495.968-3.091.968-4.792a12.28 12.28 0 0 0-.968-4.835c-.646-1.523-1.524-2.842-2.637-3.956-1.114-1.112-2.434-1.992-3.956-2.638a12.287 12.287 0 0 0-4.836-.967c-1.7 0-3.297.322-4.791.967a12.453 12.453 0 0 0-3.912 2.638c-1.114 1.114-1.993 2.433-2.638 3.956a12.26 12.26 0 0 0-.967 4.835c0 1.701.321 3.297.967 4.792a12.425 12.425 0 0 0 2.638 3.912 12.416 12.416 0 0 0 3.912 2.637c1.494.646 3.091.968 4.791.968zM464.377 61.712c2.168 2.228 3.838 4.733 5.012 7.517 1.172 2.784 1.758 5.729 1.758 8.835 0 3.107-.586 6.053-1.758 8.836-1.174 2.784-2.844 5.29-5.012 7.517-2.228 2.228-4.733 3.912-7.517 5.055-2.784 1.143-5.729 1.715-8.835 1.715-2.813 0-5.495-.47-8.044-1.407a22.349 22.349 0 0 1-6.901-4.044v23.121h-10.55V56.7h10.55v3.693a22.414 22.414 0 0 1 6.901-4.045c2.549-.937 5.23-1.406 8.044-1.406 3.105 0 6.051.571 8.835 1.714 2.784 1.144 5.289 2.829 7.517 5.056zm-16.352 28.924c1.758 0 3.398-.321 4.923-.968a12.463 12.463 0 0 0 4-2.681 12.482 12.482 0 0 0 2.682-4c.645-1.523.967-3.165.967-4.924 0-1.758-.322-3.398-.967-4.923a12.482 12.482 0 0 0-2.682-4 12.498 12.498 0 0 0-4-2.682c-1.524-.645-3.165-.967-4.923-.967-1.759 0-3.4.322-4.923.967a12.491 12.491 0 0 0-4.001 2.682 12.463 12.463 0 0 0-2.681 4c-.646 1.524-.968 3.165-.968 4.923 0 1.759.322 3.4.968 4.924a12.463 12.463 0 0 0 2.681 4 12.456 12.456 0 0 0 4.001 2.681c1.523.646 3.165.968 4.923.968zM523.806 61.36c2.168 2.228 3.824 4.719 4.967 7.473 1.144 2.755 1.715 5.656 1.715 8.703v21.363h-10.55V77.536c0-1.699-.323-3.297-.967-4.791a12.476 12.476 0 0 0-2.638-3.912 12.487 12.487 0 0 0-3.912-2.638c-1.494-.645-3.092-.967-4.791-.967h-.088c-1.817 0-3.561.352-5.231 1.055a15.962 15.962 0 0 0-4.439 2.77 14.238 14.238 0 0 0-3.121 3.912c-.791 1.466-1.187 2.989-1.187 4.571v21.363h-10.726V29.271h10.55v29.891a25.019 25.019 0 0 1 6.813-3.341 24.454 24.454 0 0 1 7.341-1.143h.088c3.047 0 5.947.571 8.703 1.714 2.754 1.144 5.245 2.8 7.473 4.968z"/>
</svg>
