<svg viewBox="0 0 49 49" xmlns="http://www.w3.org/2000/svg">
    <path d="M17.933,21.497c-0.228,0.228 -0.297,0.572 -0.173,0.871c0.124,0.299 0.415,0.494 0.739,0.494c1.754,0 4.069,0 4.069,0c0,0 0,12.935 0,18c0,0.531 0.21,1.039 0.585,1.414c0.376,0.376 0.884,0.586 1.415,0.586c0.53,0 1.039,-0.21 1.414,-0.586c0.375,-0.375 0.586,-0.883 0.586,-1.414c0,-5.065 0,-18 0,-18c0,0 2.314,0 4.068,0c0.324,0 0.616,-0.195 0.739,-0.494c0.124,-0.299 0.056,-0.643 -0.173,-0.871c-1.781,-1.781 -4.817,-4.817 -6.069,-6.069c-0.15,-0.15 -0.353,-0.234 -0.565,-0.234c-0.213,0 -0.416,0.084 -0.566,0.234c-1.252,1.252 -4.288,4.288 -6.069,6.069Zm-7.365,-14.635c-0.531,0 -1.039,0.211 -1.415,0.586c-0.375,0.375 -0.585,0.884 -0.585,1.414c0,0.531 0.21,1.039 0.585,1.414c0.376,0.376 0.884,0.586 1.415,0.586c5.745,0 22.254,0 28,0c0.53,0 1.039,-0.21 1.414,-0.586c0.375,-0.375 0.586,-0.883 0.586,-1.414c0,-0.53 -0.211,-1.039 -0.586,-1.414c-0.375,-0.375 -0.884,-0.586 -1.414,-0.586c-5.746,0 -22.255,0 -28,0Z"/>
</svg>
