<svg version="1.1" viewBox="0 0 49 49" xmlns="http://www.w3.org/2000/svg">
    <path d="M31.71,28.145c0.215,-0.215 0.279,-0.538 0.163,-0.819c-0.117,-0.281 -0.391,-0.464 -0.694,-0.464c-1.767,0 -4.186,0 -4.186,0c0,0 0,-12.935 0,-18c0,-0.53 -0.211,-1.039 -0.586,-1.414c-0.375,-0.375 -0.884,-0.586 -1.414,-0.586c-0.531,0 -1.04,0.211 -1.415,0.586c-0.375,0.375 -0.585,0.884 -0.585,1.414c0,5.065 0,18 0,18c0,0 -2.42,0 -4.186,0c-0.304,0 -0.578,0.183 -0.695,0.464c-0.116,0.281 -0.052,0.604 0.163,0.819c1.785,1.784 4.937,4.937 6.186,6.186c0.294,0.293 0.77,0.293 1.063,0c1.249,-1.249 4.402,-4.402 6.186,-6.186Zm-20.717,10.717c-0.531,0 -1.04,0.211 -1.415,0.586c-0.375,0.375 -0.585,0.884 -0.585,1.414c0,0.531 0.21,1.039 0.585,1.414c0.375,0.376 0.884,0.586 1.415,0.586c5.745,0 22.254,0 28,0c0.53,0 1.039,-0.21 1.414,-0.586c0.375,-0.375 0.586,-0.883 0.586,-1.414c0,-0.53 -0.211,-1.039 -0.586,-1.414c-0.375,-0.375 -0.884,-0.586 -1.414,-0.586c-5.746,0 -22.255,0 -28,0Z"/>
</svg>
