<svg xmlns="http://www.w3.org/2000/svg" viewBox="0 0 566.93 141.73">
  <path d="M116.292 27.112l2.02-.106c.602 0 1.284.266 2.047.797.762.532 1.143.993 1.143 1.382-.178.78-4.359 7.904-12.546 21.371-25.554 41.998-39.625 65.69-42.211 71.078a52.842 52.842 0 0 1 4.333-4.066c1.577-1.33 2.463-1.994 2.658-1.994.194 0 .399.115.611.346.213.23.319.46.319.691 0 .229-.16.521-.479.877-.319.354-1.427 1.762-3.323 4.227-1.896 2.463-3.305 4.217-4.227 5.263a23.85 23.85 0 0 0-2.472 3.349c-.727 1.188-1.347 2.029-1.86 2.525-.514.496-1.143.744-1.887.744-2.162 0-3.979-.93-5.449-2.791-1.471-1.86-2.206-3.429-2.206-4.705 0-2.48 5.271-12.156 15.815-29.025 10.543-16.87 19.838-31.029 27.884-42.477C77.855 76.571 63.04 90.996 52.018 97.871c-3.828 2.41-6.947 3.615-9.356 3.615-1.169 0-2.331-.338-3.482-1.01-1.152-.674-1.985-1.523-2.499-2.553-.515-1.027-.771-2.861-.771-5.502 0-2.64 1.134-6.433 3.402-11.377 2.268-4.943 5.191-10.233 8.771-15.869 6.344-10.065 12.192-18.677 17.544-25.836-4.75 4.289-8.631 6.433-11.643 6.433-1.382 0-2.295-.204-2.738-.612-.444-.407-1.046-1.045-1.808-1.914-.763-.868-1.143-1.825-1.143-2.871 0-1.045.186-1.869.558-2.472.372-.602.718-1.063 1.037-1.382 1.205-1.205 1.984-1.914 2.339-2.126.354-.212.788-.319 1.302-.319s.771.08.771.239c0 .159-.186.398-.558.718-.372.319-.558.567-.558.744 0 .178.194.266.584.266.39 0 .886-.097 1.489-.292.602-.194 1.391-.549 2.366-1.063.974-.513 1.86-.992 2.658-1.436.797-.442 1.993-1.134 3.588-2.073a173.457 173.457 0 0 1 3.642-2.1c.832-.46 2.055-1.284 3.668-2.472 1.612-1.187 2.809-1.994 3.588-2.419 1.311-.779 2.383-1.01 3.216-.691.833.319 1.489.532 1.967.638s.904.257 1.276.452.718.417 1.037.665c1.098.78 1.648 1.693 1.648 2.738s-.505 2.259-1.515 3.642c-1.01 1.382-3.27 4.651-6.778 9.808s-7.467 11.076-11.88 17.756c-4.412 6.681-8.293 12.945-11.642 18.792-3.35 5.848-5.024 9.535-5.024 11.059 0 .531.141.797.425.797.283 0 1.329-.691 3.137-2.073 9.498-7.337 21.601-18.837 36.31-34.502 12.085-12.865 19.209-20.821 21.371-23.87.673-.921 1.337-1.542 1.994-1.861.655-.319 1.656-.479 3.003-.479l2.978.053zM139.098 61.189c0 2.339-.949 4.395-2.844 6.167-1.896 1.773-4.049 2.658-6.459 2.658-.78 0-1.294-.186-1.542-.558-.248-.372-.372-.859-.372-1.462s.071-1.187.213-1.754c-1.276.425-2.694 1.082-4.253 1.967-1.56.886-3.474 2.198-5.742 3.934-2.269 1.736-3.402 3.03-3.402 3.881 0 .284.416.426 1.25.426.832 0 2.117-.293 3.854-.877 1.736-.586 2.951-.878 3.642-.878s1.143.036 1.355.106c.46.248.957.789 1.489 1.621.532.834.797 1.488.797 1.967s-.461 1.108-1.382 1.888a9.797 9.797 0 0 1-3.136 1.781c-1.17.407-1.95.718-2.339.931-7.479 4.182-11.217 7.053-11.217 8.611 0 2.765 2.356 4.146 7.071 4.146 3.012 0 6.042-.957 9.091-2.87 2.586-1.63 4.917-3.287 6.991-4.971 2.073-1.683 3.384-2.72 3.934-3.11.549-.389.965-.584 1.249-.584.921 0 1.382 1.027 1.382 3.083s-.125 3.411-.372 4.067c-.249.656-.957 1.461-2.126 2.418-7.585 6.167-14.762 9.25-21.531 9.25-3.615 0-6.504-.496-8.666-1.488-3.97-1.807-5.954-4.572-5.954-8.293 0-4.891 3.384-8.594 10.154-11.111-1.347-.602-2.215-1.373-2.605-2.312-.39-.938-.584-2.445-.584-4.519s.965-4.271 2.897-6.592c1.931-2.321 4.297-4.227 7.097-5.715 6.237-3.366 11.802-5.05 16.693-5.05 1.169 0 2.356.284 3.562.851 1.202.566 1.805 1.364 1.805 2.391zM185.642 22.673c1.293 1.01 1.94 2.508 1.94 4.492 0 1.985-1.099 5.095-3.296 9.33-2.198 4.235-4.837 8.559-7.921 12.971-3.083 4.413-6.575 9.1-10.473 14.062-6.167 7.868-12.086 14.938-17.756 21.212-.036.426-.187 1.215-.452 2.365-.266 1.152-.398 2.312-.398 3.482s.54 2.225 1.621 3.163c1.081.939 2.419 1.409 4.014 1.409 1.595 0 3.305-.566 5.13-1.701 1.825-1.135 3.411-2.393 4.758-3.775 3.544-3.649 5.742-5.475 6.592-5.475s1.276 1.293 1.276 3.881v1.062c0 1.383-.249 2.393-.744 3.03-2.977 3.651-6.326 6.372-10.048 8.161-3.721 1.789-7.248 2.684-10.579 2.684-3.332 0-5.866-1.019-7.602-3.057-1.737-2.037-2.605-4.828-2.605-8.373 0-6.91 1.852-15.035 5.555-24.375 3.703-9.338 7.876-17.286 12.52-23.843 10.455-14.814 18.447-22.222 23.976-22.222 1.701.002 3.197.507 4.492 1.517zm-6.885 7.31c0-.531-.178-.797-.532-.797-1.241 0-4.501 3.544-9.782 10.632-5.281 7.089-9.1 12.742-11.457 16.959-2.357 4.218-4.581 9.516-6.672 15.895 4.182-4.961 9.968-12.696 17.358-23.205 7.39-10.508 11.085-17.003 11.085-19.484z"/>
  <path d="M213.711 22.673c1.293 1.01 1.94 2.508 1.94 4.492 0 1.985-1.099 5.095-3.296 9.33-2.198 4.235-4.837 8.559-7.921 12.971-3.083 4.413-6.575 9.1-10.473 14.062-6.167 7.868-12.086 14.938-17.756 21.212-.036.426-.187 1.215-.452 2.365-.266 1.152-.398 2.312-.398 3.482s.54 2.225 1.621 3.163c1.081.939 2.419 1.409 4.014 1.409 1.595 0 3.305-.566 5.13-1.701 1.825-1.135 3.411-2.393 4.758-3.775 3.544-3.649 5.742-5.475 6.592-5.475s1.276 1.293 1.276 3.881v1.062c0 1.383-.249 2.393-.744 3.03-2.977 3.651-6.326 6.372-10.048 8.161-3.721 1.789-7.248 2.684-10.579 2.684-3.332 0-5.866-1.019-7.602-3.057-1.737-2.037-2.605-4.828-2.605-8.373 0-6.91 1.852-15.035 5.555-24.375 3.703-9.338 7.876-17.286 12.52-23.843 10.455-14.814 18.447-22.222 23.976-22.222 1.701.002 3.198.507 4.492 1.517zm-6.885 7.31c0-.531-.178-.797-.532-.797-1.241 0-4.501 3.544-9.782 10.632-5.281 7.089-9.1 12.742-11.457 16.959-2.357 4.218-4.581 9.516-6.672 15.895 4.182-4.961 9.968-12.696 17.358-23.205 7.39-10.508 11.085-17.003 11.085-19.484z"/>
  <path d="M229.314 60.445c1.063 0 2.153.479 3.27 1.436s1.675 2.419 1.675 4.386-.691 4.519-2.073 7.656c-1.382 3.137-3.279 6.326-5.688 9.568a79.487 79.487 0 0 1-7.948 9.145c-2.889 2.854-6.007 5.192-9.356 7.018-3.35 1.824-6.389 2.738-9.118 2.738s-4.917-.86-6.565-2.579-2.472-4.11-2.472-7.177c0-3.065.753-6.459 2.26-10.181 1.506-3.722 3.446-7.009 5.821-9.861a57.363 57.363 0 0 1 7.708-7.682c5.776-4.643 10.845-6.964 15.204-6.964 1.949 0 3.42.479 4.413 1.436.354.319.532.603.532.851v.319c.494-.073 1.274-.109 2.337-.109zm-5.369 7.071h-.372c-1.241 0-1.861-.904-1.861-2.711-2.587.851-5.299 2.339-8.134 4.466-2.836 2.126-5.37 4.643-7.602 7.548-4.537 5.813-6.841 10.722-6.911 14.727 0 1.985.726 2.977 2.18 2.977 1.453 0 3.615-.957 6.486-2.87 2.871-1.914 5.715-4.643 8.532-8.187 2.818-3.545 4.926-6.619 6.326-9.225 1.4-2.604 2.1-4.376 2.1-5.316 0-.939-.249-1.409-.744-1.409zM288.324 61.455l-.639-2.552c0-1.453.506-2.596 1.516-3.429 1.01-.832 2.277-1.249 3.801-1.249 2.977 0 4.467 1.896 4.467 5.688 0 2.729-1.348 6.495-4.041 11.297-2.693 4.803-5.875 9.446-9.543 13.928-3.668 4.484-7.558 8.383-11.669 11.695-4.112 3.314-7.275 4.971-9.489 4.971-2.215 0-3.784-.603-4.705-1.807-.922-1.205-1.382-2.366-1.382-3.482 0-1.117.053-2.17.16-3.163a30.517 30.517 0 0 1 2.871-9.941c-3.792 4.962-7.868 9.419-12.227 13.37-4.359 3.952-8.01 5.928-10.952 5.928-1.418 0-2.552-.426-3.402-1.275-.851-.852-1.276-2.295-1.276-4.334 0-2.037 1.223-5.865 3.668-11.482 2.445-5.617 4.785-10.127 7.017-13.529-.815.496-1.533.744-2.153.744-.621 0-1.294-.346-2.02-1.037-.727-.691-1.09-1.231-1.09-1.621 0-.39.266-.957.797-1.701.532-.745 2.569-2.579 6.114-5.502 3.543-2.924 5.971-4.386 7.283-4.386a9.63 9.63 0 0 1 3.748.744c1.187.497 1.781 1.179 1.781 2.047 0 .869-2.464 5.927-7.39 15.177-4.927 9.25-7.39 14.266-7.39 15.045 0 .107.035.16.106.16.744 0 4.457-3.793 11.137-11.377 6.68-7.584 11.935-13.822 15.763-18.713.532-.886 1.329-1.329 2.393-1.329l.479.053 2.924-.585c.46 0 .912.178 1.355.532.443.354.665.673.665.957 0 .284-.629 1.56-1.887 3.828-1.258 2.269-3.305 6.558-6.14 12.865-2.836 6.309-4.253 10.738-4.253 13.291 0 .638.23.957.691.957 1.347 0 4.155-2.437 8.426-7.311 4.271-4.872 7.752-9.542 10.446-14.008s4.04-7.621 4.04-9.464zM318.413 84.049l-.266 1.117c0 .212.098.407.293.584.194.178.434.266.718.266.283 0 .513-.141.69-.425 5.281-7.018 9.657-13.192 13.132-18.527 3.473-5.333 6.016-9.258 7.628-11.775a4361.71 4361.71 0 0 1 3.854-6.007c2.552-3.898 5.085-7.389 7.603-10.473-9.569 2.411-17.065 3.615-22.488 3.615-5.422 0-9.321-.345-11.695-1.037-2.375-.691-3.934-1.47-4.678-2.339-.745-.868-1.117-1.754-1.117-2.658s.035-1.781.106-2.631c.142-1.772 1.214-3.225 3.217-4.359 2.002-1.134 3.659-1.701 4.971-1.701 1.311 0 1.967.195 1.967.584 0 .391-.293.913-.877 1.568-.585.656-.878 1.108-.878 1.356 0 1.134 4.094 1.701 12.281 1.701 8.187 0 17.597-1.081 28.229-3.243 6.096-4.961 11.358-7.443 15.789-7.443 2.941 0 4.892.833 5.849 2.499.638.993.956 1.985.956 2.977 0 .993-.576 1.985-1.728 2.977-1.152.993-2.703 1.843-4.651 2.552-3.545 1.276-7.727 2.286-12.547 3.03-2.02 2.587-4.882 6.61-8.585 12.068-3.704 5.458-6.229 9.144-7.576 11.058-1.347 1.914-3.518 5.316-6.512 10.207a4769.884 4769.884 0 0 1-7.789 12.679 187.383 187.383 0 0 1-7.017 10.553c-5.069 7.16-9.588 10.739-13.557 10.739-1.666 0-3.102-.444-4.307-1.329-1.205-.887-1.807-2.33-1.807-4.332s1.106-4.501 3.322-7.496c2.215-2.995 3.836-4.918 4.864-5.769 1.027-.851 1.719-1.276 2.073-1.276.355-.002.533.23.533.69zM395.658 60.551c2.693 0 4.041.922 4.041 2.765 0 .993-.231 1.719-.691 2.18-.461.461-1.444 1.993-2.95 4.598-1.507 2.605-3.173 5.938-4.997 9.994-1.826 4.059-3.004 7.523-3.536 10.394-.105.354-.159.851-.159 1.489 0 1.949.531 2.924 1.595 2.924s2.321-.506 3.774-1.516 2.746-2.091 3.881-3.242a104.838 104.838 0 0 0 3.323-3.536c1.08-1.204 1.728-1.896 1.94-2.073.212-.177.531-.266.957-.266.673 0 1.08.514 1.223 1.541.141 1.029.212 2.092.212 3.19s-.106 1.86-.318 2.286c-1.028 2.02-3.288 4.447-6.778 7.283-3.491 2.835-6.664 4.253-9.517 4.253s-4.953-.869-6.299-2.604c-1.348-1.736-2.021-3.66-2.021-5.769s.354-3.961 1.063-5.556c-2.942 3.828-6.318 7.07-10.128 9.729s-6.92 3.987-9.33 3.987-4.377-.727-5.9-2.18c-1.95-1.808-2.924-4.314-2.924-7.522 0-3.207.718-6.433 2.152-9.676a34.898 34.898 0 0 1 5.662-8.878 56.782 56.782 0 0 1 7.709-7.31c5.882-4.607 11.305-6.911 16.268-6.911 1.913 0 3.473.319 4.678.957 1.205.638 1.967 1.436 2.286 2.392.851-1.276 1.568-2.082 2.153-2.419.585-.335 1.462-.504 2.631-.504zm-7.07 5.901c-6.061 0-12.333 3.368-18.819 10.101-2.304 2.411-4.422 5.299-6.353 8.666-1.933 3.367-2.897 5.671-2.897 6.911 0 1.241.354 1.86 1.063 1.86.991 0 3.756-1.957 8.293-5.875 4.536-3.915 7.549-6.795 9.037-8.639 1.63-2.054 4.856-6.396 9.676-13.024z"/>
  <path d="M425.429 88.993c0 1.063-.106 1.825-.318 2.286-1.737 3.545-4.502 6.406-8.294 8.586s-7.089 3.27-9.888 3.27c-2.8 0-5.21-.939-7.23-2.818-2.02-1.878-3.03-3.791-3.03-5.741 0-1.948.975-4.784 2.924-8.506s3.898-7.159 5.849-10.313c1.948-3.154 2.924-4.864 2.924-5.13s-.364-.788-1.09-1.568c-.727-.779-1.09-1.355-1.09-1.728s.735-1.347 2.206-2.924 3.261-3.137 5.369-4.678c2.108-1.542 3.722-2.313 4.838-2.313s2.117.497 3.004 1.489c.886.993 1.329 1.896 1.329 2.711s-4.219 8.488-12.652 23.019c-.106.213-.399.683-.878 1.409s-.851 1.328-1.116 1.807-.576 1.056-.931 1.729c-.709 1.418-1.062 2.604-1.062 3.562 0 1.206.814 1.808 2.445 1.808 1.63 0 3.322-.559 5.077-1.675 1.754-1.116 3.27-2.347 4.545-3.694 3.331-3.58 5.228-5.369 5.688-5.369.92-.003 1.381 1.591 1.381 4.781zm8.612-46.41c0 2.02-.939 4.049-2.817 6.087-1.879 2.039-3.837 3.057-5.874 3.057-2.039 0-3.057-1.063-3.057-3.19s.895-4.155 2.685-6.087c1.789-1.931 3.765-2.897 5.927-2.897.957 0 1.719.266 2.286.797.566.531.85 1.275.85 2.233z"/>
  <path d="M470.059 22.673c1.294 1.01 1.94 2.508 1.94 4.492 0 1.985-1.099 5.095-3.296 9.33-2.198 4.235-4.838 8.559-7.921 12.971-3.084 4.413-6.575 9.1-10.473 14.062-6.167 7.868-12.087 14.938-17.757 21.212-.035.426-.186 1.215-.451 2.365-.267 1.152-.399 2.312-.399 3.482s.54 2.225 1.622 3.163c1.08.939 2.419 1.409 4.014 1.409s3.304-.566 5.13-1.701c1.825-1.135 3.411-2.393 4.758-3.775 3.544-3.649 5.741-5.475 6.593-5.475.851 0 1.275 1.293 1.275 3.881v1.062c0 1.383-.248 2.393-.744 3.03-2.978 3.651-6.326 6.372-10.048 8.161s-7.248 2.684-10.579 2.684c-3.332 0-5.866-1.019-7.603-3.057-1.736-2.037-2.604-4.828-2.604-8.373 0-6.91 1.852-15.035 5.556-24.375 3.703-9.338 7.876-17.286 12.52-23.843 10.454-14.814 18.447-22.222 23.976-22.222 1.7.002 3.197.507 4.491 1.517zm-6.884 7.31c0-.531-.178-.797-.532-.797-1.241 0-4.501 3.544-9.781 10.632-5.281 7.089-9.101 12.742-11.457 16.959-2.357 4.218-4.581 9.516-6.672 15.895 4.182-4.961 9.968-12.696 17.357-23.205 7.389-10.508 11.085-17.003 11.085-19.484z"/>
</svg>
